<svg width="30" height="31" viewBox="0 0 30 31" fill="none" xmlns="http://www.w3.org/2000/svg">
<path d="M9.4 14.75C8.98579 14.75 8.65 15.0858 8.65 15.5C8.65 15.9142 8.98579 16.25 9.4 16.25V14.75ZM20.6 16.25C21.0142 16.25 21.35 15.9142 21.35 15.5C21.35 15.0858 21.0142 14.75 20.6 14.75V16.25ZM15.75 9.9C15.75 9.48579 15.4142 9.15 15 9.15C14.5858 9.15 14.25 9.48579 14.25 9.9H15.75ZM14.25 21.1C14.25 21.5142 14.5858 21.85 15 21.85C15.4142 21.85 15.75 21.5142 15.75 21.1H14.25ZM28.25 15.5C28.25 22.8178 22.3178 28.75 15 28.75V30.25C23.1462 30.25 29.75 23.6462 29.75 15.5H28.25ZM15 28.75C7.68223 28.75 1.75 22.8178 1.75 15.5H0.25C0.25 23.6462 6.8538 30.25 15 30.25V28.75ZM1.75 15.5C1.75 8.18223 7.68223 2.25 15 2.25V0.75C6.8538 0.75 0.25 7.3538 0.25 15.5H1.75ZM15 2.25C22.3178 2.25 28.25 8.18223 28.25 15.5H29.75C29.75 7.3538 23.1462 0.75 15 0.75V2.25ZM9.4 16.25H20.6V14.75H9.4V16.25ZM14.25 9.9V21.1H15.75V9.9H14.25Z" fill="#8B53FF"/>
</svg>
