<svg width="30" height="31" viewBox="0 0 30 31" fill="none" xmlns="http://www.w3.org/2000/svg">
<path d="M14.4697 14.9697C14.1768 15.2626 14.1768 15.7374 14.4697 16.0303C14.7626 16.3232 15.2374 16.3232 15.5303 16.0303L14.4697 14.9697ZM29.5303 2.03033C29.8232 1.73744 29.8232 1.26256 29.5303 0.96967C29.2374 0.676777 28.7626 0.676777 28.4697 0.96967L29.5303 2.03033ZM22.65 15.5C22.65 19.725 19.225 23.15 15 23.15V24.65C20.0534 24.65 24.15 20.5534 24.15 15.5H22.65ZM15 23.15C10.775 23.15 7.35 19.725 7.35 15.5H5.85C5.85 20.5534 9.94659 24.65 15 24.65V23.15ZM7.35 15.5C7.35 11.275 10.775 7.85 15 7.85V6.35C9.94659 6.35 5.85 10.4466 5.85 15.5H7.35ZM15 7.85C19.225 7.85 22.65 11.275 22.65 15.5H24.15C24.15 10.4466 20.0534 6.35 15 6.35V7.85ZM15.5303 16.0303L29.5303 2.03033L28.4697 0.96967L14.4697 14.9697L15.5303 16.0303ZM28.25 15.5C28.25 22.8178 22.3178 28.75 15 28.75V30.25C23.1462 30.25 29.75 23.6462 29.75 15.5H28.25ZM15 28.75C7.68223 28.75 1.75 22.8178 1.75 15.5H0.25C0.25 23.6462 6.8538 30.25 15 30.25V28.75ZM1.75 15.5C1.75 8.18223 7.68223 2.25 15 2.25V0.75C6.8538 0.75 0.25 7.3538 0.25 15.5H1.75ZM15 2.25C22.3178 2.25 28.25 8.18223 28.25 15.5H29.75C29.75 7.3538 23.1462 0.75 15 0.75V2.25Z" fill="#8B53FF"/>
</svg>
