<svg width="30" height="31" viewBox="0 0 30 31" fill="none" xmlns="http://www.w3.org/2000/svg">
<path d="M29 10.65C29.4142 10.65 29.75 10.3142 29.75 9.9C29.75 9.48579 29.4142 9.15 29 9.15V10.65ZM1 9.15C0.585786 9.15 0.25 9.48579 0.25 9.9C0.25 10.3142 0.585786 10.65 1 10.65V9.15ZM19.15 29.5C19.15 29.9142 19.4858 30.25 19.9 30.25C20.3142 30.25 20.65 29.9142 20.65 29.5H19.15ZM20.65 9.9C20.65 9.48579 20.3142 9.15 19.9 9.15C19.4858 9.15 19.15 9.48579 19.15 9.9H20.65ZM9.35 29.5C9.35 29.9142 9.68579 30.25 10.1 30.25C10.5142 30.25 10.85 29.9142 10.85 29.5H9.35ZM10.85 9.9C10.85 9.48579 10.5142 9.15 10.1 9.15C9.68579 9.15 9.35 9.48579 9.35 9.9H10.85ZM19.9 20.45C20.3142 20.45 20.65 20.1142 20.65 19.7C20.65 19.2858 20.3142 18.95 19.9 18.95V20.45ZM1 18.95C0.585786 18.95 0.25 19.2858 0.25 19.7C0.25 20.1142 0.585786 20.45 1 20.45V18.95ZM6.6 2.25H23.4V0.75H6.6V2.25ZM28.25 7.1V23.9H29.75V7.1H28.25ZM23.4 28.75H6.6V30.25H23.4V28.75ZM1.75 23.9V7.1H0.25V23.9H1.75ZM6.6 28.75C3.92142 28.75 1.75 26.5786 1.75 23.9H0.25C0.25 27.407 3.09299 30.25 6.6 30.25V28.75ZM28.25 23.9C28.25 26.5786 26.0786 28.75 23.4 28.75V30.25C26.907 30.25 29.75 27.407 29.75 23.9H28.25ZM23.4 2.25C26.0786 2.25 28.25 4.42142 28.25 7.1H29.75C29.75 3.59299 26.907 0.75 23.4 0.75V2.25ZM6.6 0.75C3.09299 0.75 0.25 3.59299 0.25 7.1H1.75C1.75 4.42142 3.92142 2.25 6.6 2.25V0.75ZM29 9.15H1V10.65H29V9.15ZM20.65 29.5L20.65 9.9H19.15L19.15 29.5H20.65ZM10.85 29.5L10.85 9.9H9.35L9.35 29.5H10.85ZM19.9 18.95H1V20.45H19.9V18.95Z" fill="#8B53FF"/>
</svg>
