<svg width="28" height="30" viewBox="0 0 28 30" fill="none" xmlns="http://www.w3.org/2000/svg">
<path d="M11.6672 2.17485L11.2298 1.56561L11.6672 2.17485ZM25.3328 8.63639L25.7702 8.02715L25.3328 8.63639ZM2.66717 8.63639L2.22977 8.02715L2.66717 8.63639ZM26.25 11.8857V26.5H27.75V11.8857H26.25ZM25 27.75H3V29.25H25V27.75ZM1.75 26.5V11.8857H0.25V26.5H1.75ZM3.10458 9.24563L12.1046 2.78409L11.2298 1.56561L2.22977 8.02715L3.10458 9.24563ZM15.8954 2.78409L24.8954 9.24563L25.7702 8.02715L16.7702 1.56561L15.8954 2.78409ZM12.1046 2.78409C13.2373 1.97083 14.7627 1.97083 15.8954 2.78409L16.7702 1.56561C15.1147 0.376991 12.8853 0.37699 11.2298 1.56561L12.1046 2.78409ZM3 27.75C2.30964 27.75 1.75 27.1904 1.75 26.5H0.25C0.25 28.0188 1.48122 29.25 3 29.25V27.75ZM26.25 26.5C26.25 27.1904 25.6904 27.75 25 27.75V29.25C26.5188 29.25 27.75 28.0188 27.75 26.5H26.25ZM27.75 11.8857C27.75 10.3557 27.0131 8.91943 25.7702 8.02715L24.8954 9.24563C25.7458 9.85614 26.25 10.8389 26.25 11.8857H27.75ZM1.75 11.8857C1.75 10.8389 2.25423 9.85614 3.10458 9.24563L2.22977 8.02715C0.986945 8.91943 0.25 10.3557 0.25 11.8857H1.75Z" fill="#8B53FF"/>
</svg>
