<svg width="165" height="81" viewBox="0 0 165 81" fill="none" xmlns="http://www.w3.org/2000/svg">
<path d="M39.9258 53.4375C39.8555 53.4844 39.7852 53.5312 39.7148 53.5781C39.6445 53.625 39.5742 53.6719 39.5039 53.7188C39.2461 53.8594 39.0117 53.9414 38.8008 53.9648C38.5898 53.9648 38.3555 54.082 38.0977 54.3164C38.0039 54.1992 37.9336 54.1406 37.8867 54.1406C37.8398 54.1406 37.7578 54.1406 37.6406 54.1406C37.3359 54.1406 37.1602 54.0586 37.1133 53.8945C37.0195 53.918 36.8672 53.9766 36.6562 54.0703C36.4688 54.1641 36.3281 54.2344 36.2344 54.2812C36.4453 53.9766 36.5859 53.7422 36.6562 53.5781C36.7266 53.4141 36.7617 53.2617 36.7617 53.1211C36.7852 52.9805 36.7969 52.8398 36.7969 52.6992C36.8203 52.5352 36.8789 52.3125 36.9727 52.0312C37.0195 51.9375 37.0547 51.8438 37.0781 51.75C37.1016 51.6562 37.1367 51.5508 37.1836 51.4336C37.3008 51.082 37.3945 50.6836 37.4648 50.2383C37.5586 49.793 37.6992 49.4062 37.8867 49.0781C37.8867 48.6797 37.9688 48.3047 38.1328 47.9531C38.3203 47.6016 38.4727 47.2383 38.5898 46.8633C38.6367 46.7227 38.6953 46.582 38.7656 46.4414C38.8594 46.3008 38.9297 46.1602 38.9766 46.0195C39.0703 45.7852 39.1406 45.5625 39.1875 45.3516C39.2578 45.1172 39.3281 44.8945 39.3984 44.6836C39.5859 44.0039 39.7734 43.3359 39.9609 42.6797C40.1484 42 40.3242 41.3203 40.4883 40.6406C40.5117 40.5234 40.5352 40.3945 40.5586 40.2539C40.6055 40.1133 40.6523 39.9844 40.6992 39.8672C40.8164 39.5156 40.8867 39.1641 40.9102 38.8125C40.957 38.4375 41.0742 38.0859 41.2617 37.7578C41.2383 37.5938 41.2383 37.4414 41.2617 37.3008C41.3086 37.1602 41.3555 37.0078 41.4023 36.8438C41.4492 36.6797 41.4961 36.5273 41.543 36.3867C41.5898 36.2461 41.625 36.1406 41.6484 36.0703C41.7656 35.7656 41.8477 35.4961 41.8945 35.2617C41.9648 35.0039 42.0938 34.7344 42.2812 34.4531C42.2812 34.4531 42.3164 34.3359 42.3867 34.1016C42.457 33.8438 42.5391 33.5625 42.6328 33.2578C42.7266 32.9531 42.8086 32.6719 42.8789 32.4141C42.9492 32.1328 42.9844 31.9688 42.9844 31.9219C43.0312 31.7344 43.0664 31.5586 43.0898 31.3945C43.1367 31.2305 43.1836 31.0547 43.2305 30.8672C43.2773 30.75 43.3242 30.6562 43.3711 30.5859C43.418 30.4922 43.4648 30.3867 43.5117 30.2695C43.582 30.0117 43.6523 29.6953 43.7227 29.3203C43.793 28.9453 43.8867 28.6523 44.0039 28.4414C44.0742 28.2773 44.2031 28.1484 44.3906 28.0547C44.6016 27.9375 44.7773 27.8203 44.918 27.7031C45.3398 27.75 45.6445 27.7266 45.832 27.6328C46.043 27.5391 46.2422 27.4219 46.4297 27.2812C46.5469 27.3047 46.6523 27.3398 46.7461 27.3867C46.8633 27.4102 46.9805 27.4219 47.0977 27.4219C47.543 27.9141 47.8477 28.418 48.0117 28.9336C48.1992 29.4492 48.375 29.9648 48.5391 30.4805C48.6094 30.7383 48.6797 30.9961 48.75 31.2539C48.8203 31.4883 48.9023 31.7227 48.9961 31.957C49.0195 32.0273 49.0547 32.1094 49.1016 32.2031C49.1484 32.2734 49.1953 32.3555 49.2422 32.4492C49.3594 32.6367 49.4531 32.8359 49.5234 33.0469C49.6172 33.2578 49.6992 33.4688 49.7695 33.6797C49.9102 33.8438 50.0156 34.043 50.0859 34.2773C50.1562 34.4883 50.2148 34.7109 50.2617 34.9453C50.332 35.1562 50.4023 35.3672 50.4727 35.5781C50.543 35.7656 50.6484 35.9297 50.7891 36.0703C50.8359 36.3281 50.918 36.5859 51.0352 36.8438C51.1523 37.0781 51.2344 37.3359 51.2812 37.6172C51.4219 37.8047 51.5859 38.168 51.7734 38.707C51.9609 39.2227 52.1484 39.7852 52.3359 40.3945C52.5234 41.0039 52.6992 41.5898 52.8633 42.1523C53.0273 42.7148 53.1445 43.1133 53.2148 43.3477C53.2617 43.5352 53.3555 43.7812 53.4961 44.0859C53.6367 44.3672 53.7656 44.625 53.8828 44.8594C53.9766 45.1172 54.0703 45.3867 54.1641 45.668C54.2812 45.9492 54.375 46.2188 54.4453 46.4766C54.4922 46.7344 54.5391 46.9805 54.5859 47.2148C54.6562 47.4492 54.7266 47.6953 54.7969 47.9531C54.8438 48.1172 54.9141 48.2695 55.0078 48.4102C55.1016 48.5273 55.1719 48.6797 55.2188 48.8672C55.3125 49.0547 55.3711 49.2305 55.3945 49.3945C55.4414 49.5586 55.5234 49.7344 55.6406 49.9219C55.6172 50.1797 55.6289 50.3438 55.6758 50.4141C55.7227 50.4844 55.7695 50.5664 55.8164 50.6602C55.9102 51.1523 56.0156 51.5508 56.1328 51.8555C56.25 52.1367 56.3086 52.4414 56.3086 52.7695C56.3086 53.0508 56.25 53.2266 56.1328 53.2969C56.0391 53.3672 55.9102 53.4844 55.7461 53.6484C55.5586 53.8125 55.3945 53.9414 55.2539 54.0352C55.1367 54.1289 54.9492 54.1758 54.6914 54.1758C54.4102 54.1523 54.2344 54.1875 54.1641 54.2812C54.1172 54.3984 54.082 54.4805 54.0586 54.5273C53.7773 54.5039 53.5898 54.4922 53.4961 54.4922C53.4258 54.5156 53.3438 54.5273 53.25 54.5273C53.1797 54.5273 53.0977 54.5391 53.0039 54.5625C52.9336 54.6094 52.8516 54.6914 52.7578 54.8086C52.5938 54.6211 52.4297 54.4453 52.2656 54.2812C52.125 54.1406 51.9961 53.9766 51.8789 53.7891C51.8789 53.3906 51.8203 52.9219 51.7031 52.3828C51.6094 51.8438 51.5039 51.4219 51.3867 51.1172C51.1523 50.5078 50.9297 49.9102 50.7188 49.3242C50.5312 48.7383 50.3438 48.1406 50.1562 47.5312C50.0859 47.2734 50.0039 47.0391 49.9102 46.8281C49.8398 46.6172 49.7578 46.3945 49.6641 46.1602C49.7109 46.3477 49.7227 46.5469 49.6992 46.7578C49.6992 46.9453 49.6406 47.1328 49.5234 47.3203C49.4766 47.3672 49.4062 47.4258 49.3125 47.4961C49.2188 47.5664 49.1719 47.625 49.1719 47.6719C48.8906 47.9062 48.6445 48.1289 48.4336 48.3398C48.457 48.7617 48.3984 49.0547 48.2578 49.2188C48.1172 49.3828 47.9648 49.5352 47.8008 49.6758C47.4023 49.6992 47.1562 49.6758 47.0625 49.6055C46.9688 49.5352 46.8398 49.4883 46.6758 49.4648C46.582 49.4414 46.4883 49.4414 46.3945 49.4648C46.3008 49.4648 46.207 49.4648 46.1133 49.4648C45.9258 49.4648 45.75 49.418 45.5859 49.3242C45.5156 49.2773 45.457 49.2305 45.4102 49.1836C45.3867 49.1367 45.3516 49.0898 45.3047 49.043C45.1172 48.8555 44.8945 48.7031 44.6367 48.5859C44.4023 48.4453 44.168 48.3281 43.9336 48.2344C43.7461 48.0703 43.5469 47.9062 43.3359 47.7422C43.1484 47.5547 42.9492 47.4023 42.7383 47.2852C42.5508 47.7305 42.3984 48.1289 42.2812 48.4805C42.1875 48.8086 42.0703 49.1367 41.9297 49.4648C41.6719 50.2617 41.4609 50.9648 41.2969 51.5742C41.1328 52.1602 40.9453 52.7578 40.7344 53.3672C40.6406 53.3906 40.5469 53.4258 40.4531 53.4727C40.3828 53.5195 40.2891 53.543 40.1719 53.543L39.9258 53.4375ZM43.3711 45.9492C43.5586 45.6211 43.7227 45.4453 43.8633 45.4219C44.0273 45.375 44.168 45.2812 44.2852 45.1406C44.332 45.0938 44.3789 45.0352 44.4258 44.9648C44.4961 44.8945 44.5664 44.8242 44.6367 44.7539C44.707 44.707 44.7891 44.6602 44.8828 44.6133C44.9766 44.5664 45.0586 44.5078 45.1289 44.4375C45.3164 44.2734 45.4688 44.1328 45.5859 44.0156C45.7266 43.8984 45.9258 43.8398 46.1836 43.8398C46.582 43.8398 46.9102 43.9453 47.168 44.1562C47.4258 44.3438 47.7422 44.4727 48.1172 44.543C48.1641 44.6836 48.3164 44.7891 48.5742 44.8594C48.832 44.9062 49.0312 44.9766 49.1719 45.0703C48.9375 44.4844 48.75 43.8984 48.6094 43.3125C48.4922 42.7031 48.3398 42.1055 48.1523 41.5195C48.0117 41.0039 47.8477 40.5 47.6602 40.0078C47.4727 39.4922 47.2852 39 47.0977 38.5312C46.9336 38.0625 46.793 37.6055 46.6758 37.1602C46.5586 36.7148 46.4062 36.2812 46.2188 35.8594C46.0312 36.2812 45.8438 36.7969 45.6562 37.4062C45.4688 38.0156 45.3281 38.5547 45.2344 39.0234C45.2344 39.2344 45.2227 39.3984 45.1992 39.5156C45.1523 39.6797 45.1055 39.832 45.0586 39.9727C45.0117 40.0898 44.9648 40.2188 44.918 40.3594C44.6133 41.2734 44.332 42.1992 44.0742 43.1367C43.8398 44.0742 43.5586 45.0117 43.2305 45.9492H43.3711ZM66.2227 28.125C66.293 28.0781 66.3516 28.0312 66.3984 27.9844C66.4688 27.9375 66.5508 27.9023 66.6445 27.8789C66.7617 27.9258 66.8789 27.9844 66.9961 28.0547C67.1133 28.125 67.2305 28.1836 67.3477 28.2305C67.7461 28.6289 68.0742 29.1445 68.332 29.7773C68.4492 30.0352 68.6133 30.2695 68.8242 30.4805C69.0586 30.6914 69.2461 30.9375 69.3867 31.2188C69.4805 31.4062 69.5742 31.5703 69.668 31.7109C69.7617 31.8516 69.8672 32.0156 69.9844 32.2031C70.3594 32.7188 70.7109 33.2812 71.0391 33.8906C71.3906 34.5 71.7422 35.0742 72.0938 35.6133C72.4219 36.1992 72.7383 36.7852 73.043 37.3711C73.3711 37.9336 73.7109 38.5078 74.0625 39.0938C74.0625 39.2109 74.1094 39.3398 74.2031 39.4805C74.2266 39.8555 74.2266 40.0898 74.2031 40.1836C74.2969 40.3477 74.4141 40.4766 74.5547 40.5703C74.7188 40.6641 74.8594 40.7695 74.9766 40.8867C75 41.0742 74.9648 41.25 74.8711 41.4141C74.8008 41.5547 74.7539 41.7188 74.7305 41.9062C74.4258 42.4219 74.0977 42.9492 73.7461 43.4883C73.5586 43.7461 73.3828 44.0156 73.2188 44.2969C73.0781 44.5781 72.9141 44.8477 72.7266 45.1055C72.6094 45.3633 72.5156 45.5625 72.4453 45.7031C72.375 45.8203 72.3164 45.9375 72.2695 46.0547C72.0352 46.3125 71.8711 46.6055 71.7773 46.9336C71.6836 47.2383 71.5078 47.5195 71.25 47.7773C71.2969 48.0586 71.4727 48.3633 71.7773 48.6914C72.1055 48.9961 72.375 49.2422 72.5859 49.4297C72.6562 49.5703 72.7383 49.6992 72.832 49.8164C72.9258 49.9102 73.0195 50.0156 73.1133 50.1328C73.1602 50.1797 73.207 50.2266 73.2539 50.2734C73.3242 50.3203 73.3945 50.3672 73.4648 50.4141C73.4883 50.5781 73.5469 50.7188 73.6406 50.8359C73.7578 50.9297 73.8867 51 74.0273 51.0469C74.1211 51.3047 74.2031 51.4688 74.2734 51.5391C74.3672 51.5859 74.4141 51.6445 74.4141 51.7148C74.4141 51.832 74.3906 51.9609 74.3438 52.1016C74.2031 52.2656 74.0508 52.4414 73.8867 52.6289C73.7227 52.793 73.5469 52.9336 73.3594 53.0508C73.2891 53.1914 73.207 53.3672 73.1133 53.5781C73.043 53.7656 72.9492 53.9531 72.832 54.1406C72.7383 54.3516 72.6328 54.5391 72.5156 54.7031C72.3984 54.8672 72.2812 54.9727 72.1641 55.0195C71.8594 54.8555 71.707 54.6914 71.707 54.5273C71.6367 54.5039 71.5195 54.4102 71.3555 54.2461C71.2148 54.1055 71.1445 54.0117 71.1445 53.9648C70.5586 53.6367 70.0898 53.2031 69.7383 52.6641C69.668 52.6172 69.5977 52.582 69.5273 52.5586C69.4805 52.5117 69.4219 52.4766 69.3516 52.4531C69.3047 52.3359 69.2344 52.2539 69.1406 52.207C69.0703 52.1367 69.0117 52.043 68.9648 51.9258C68.8945 51.8789 68.8008 51.9375 68.6836 52.1016C68.5664 52.2656 68.4375 52.4531 68.2969 52.6641C68.1797 52.875 68.0742 53.0859 67.9805 53.2969C67.8867 53.4844 67.8281 53.6016 67.8047 53.6484C67.6641 53.7656 67.5234 53.8828 67.3828 54C67.2656 54.1406 67.1367 54.2695 66.9961 54.3867C66.7148 54.5977 66.5156 54.75 66.3984 54.8438C66.3047 54.9375 66.2344 55.0781 66.1875 55.2656C65.9766 55.3594 65.8477 55.418 65.8008 55.4414C65.7539 55.4648 65.707 55.4766 65.6602 55.4766C65.543 55.4766 65.4023 55.3945 65.2383 55.2305C65.0977 55.0898 64.9805 54.9844 64.8867 54.9141C64.7695 54.8906 64.6406 54.8672 64.5 54.8438C64.3828 54.8203 64.2773 54.75 64.1836 54.6328C64.043 54.375 63.9375 54.1641 63.8672 54C63.8203 53.8125 63.7031 53.6836 63.5156 53.6133C63.5156 53.4961 63.4805 53.4141 63.4102 53.3672C63.3633 53.3203 63.3047 53.25 63.2344 53.1562C63.0469 52.8984 62.8711 52.5938 62.707 52.2422C62.5664 51.8906 62.4023 51.5625 62.2148 51.2578C62.0273 50.9766 61.8164 50.6953 61.582 50.4141C61.3477 50.1328 61.125 49.8633 60.9141 49.6055C60.8438 49.5117 60.7617 49.418 60.668 49.3242C60.5977 49.2305 60.5273 49.1367 60.457 49.043C60.3164 48.7852 60.1641 48.5391 60 48.3047C59.8594 48.0469 59.707 47.8008 59.543 47.5664C59.4961 47.4961 59.4375 47.4375 59.3672 47.3906C59.3203 47.3203 59.2734 47.2383 59.2266 47.1445C59.0859 46.957 58.9688 46.7695 58.875 46.582C58.7812 46.3945 58.6758 46.1953 58.5586 45.9844C58.3711 45.5859 58.1484 45.2227 57.8906 44.8945C57.6562 44.543 57.4453 44.1797 57.2578 43.8047C57.0703 43.3828 56.8828 43.0078 56.6953 42.6797C56.5078 42.3281 56.3438 41.9883 56.2031 41.6602C56.2031 41.5898 56.1914 41.5195 56.168 41.4492C56.168 41.3789 56.1562 41.2969 56.1328 41.2031C56.25 40.8984 56.332 40.6875 56.3789 40.5703C56.4492 40.4531 56.4844 40.3359 56.4844 40.2188C56.5312 40.1484 56.5781 40.0781 56.625 40.0078C56.6953 39.9141 56.7422 39.8086 56.7656 39.6914C57.3281 38.9414 57.8438 38.168 58.3125 37.3711C58.8047 36.5742 59.2969 35.7891 59.7891 35.0156C60.3281 34.2188 60.8203 33.4219 61.2656 32.625C61.7344 31.8047 62.2266 31.0078 62.7422 30.2344C62.7422 30.0938 62.7656 30 62.8125 29.9531C62.8828 29.8828 62.918 29.8008 62.918 29.707C63.0352 29.5898 63.1406 29.4492 63.2344 29.2852C63.3281 29.1211 63.3984 28.957 63.4453 28.793C63.5156 28.6758 63.5859 28.5586 63.6562 28.4414C63.75 28.3242 63.8203 28.1953 63.8672 28.0547C63.9609 27.9844 64.0312 27.9023 64.0781 27.8086C64.1484 27.7148 64.2188 27.6211 64.2891 27.5273C64.4062 27.4805 64.4883 27.4219 64.5352 27.3516C64.582 27.2812 64.6992 27.2461 64.8867 27.2461C64.957 27.2461 65.0156 27.2578 65.0625 27.2812C65.1328 27.2812 65.2031 27.2695 65.2734 27.2461C65.3906 27.293 65.4727 27.3633 65.5195 27.457C65.5898 27.5508 65.6953 27.6094 65.8359 27.6328C65.8828 27.75 65.9414 27.8438 66.0117 27.9141C66.1055 27.9609 66.1758 28.0312 66.2227 28.125ZM68.0508 37.2656C67.8398 36.9375 67.6406 36.6211 67.4531 36.3164C67.2891 35.9883 67.0898 35.6836 66.8555 35.4023C66.832 35.332 66.7734 35.2266 66.6797 35.0859C66.6094 34.9219 66.5156 34.7695 66.3984 34.6289C66.3047 34.4883 66.1992 34.3594 66.082 34.2422C65.9648 34.125 65.8711 34.0664 65.8008 34.0664C65.6367 34.1836 65.4844 34.2891 65.3438 34.3828C65.25 34.6641 65.1211 34.9453 64.957 35.2266C64.793 35.5078 64.6289 35.7773 64.4648 36.0352C64.3008 36.2227 64.1484 36.3984 64.0078 36.5625C63.8906 36.7031 63.7969 36.9023 63.7266 37.1602C63.6094 37.2773 63.5039 37.3945 63.4102 37.5117C63.3398 37.6055 63.2578 37.7109 63.1641 37.8281C63.0938 38.0625 62.9648 38.3203 62.7773 38.6016C62.6133 38.8828 62.4375 39.1641 62.25 39.4453C62.0625 39.7266 61.875 40.0078 61.6875 40.2891C61.5 40.5703 61.3359 40.8281 61.1953 41.0625C61.0312 41.2734 60.9375 41.4258 60.9141 41.5195C60.9141 41.6133 60.9023 41.707 60.8789 41.8008C60.9961 42.1289 61.1602 42.4336 61.3711 42.7148C61.582 42.9961 61.7695 43.2891 61.9336 43.5938C62.1211 43.9219 62.2852 44.2383 62.4258 44.543C62.5664 44.8477 62.7656 45.1289 63.0234 45.3867C63.4453 45.9258 63.832 46.5 64.1836 47.1094C64.5586 47.6953 64.9922 48.2227 65.4844 48.6914C65.6484 48.5508 65.7539 48.375 65.8008 48.1641C65.9648 47.9766 66.1172 47.7773 66.2578 47.5664C66.3984 47.3555 66.5273 47.1562 66.6445 46.9688C66.7383 46.7344 66.8555 46.5 66.9961 46.2656C67.207 45.9375 67.418 45.6328 67.6289 45.3516C67.8633 45.0469 68.0508 44.7305 68.1914 44.4023C68.332 44.2148 68.4492 44.0273 68.543 43.8398C68.6367 43.6289 68.7773 43.4414 68.9648 43.2773C69.0117 42.9961 69.1055 42.7617 69.2461 42.5742C69.4102 42.3633 69.5625 42.1523 69.7031 41.9414C69.75 41.7773 69.8086 41.6367 69.8789 41.5195C69.9492 41.4023 70.0195 41.2734 70.0898 41.1328C69.9258 40.6641 69.7148 40.2188 69.457 39.7969C69.2227 39.3516 68.9766 38.918 68.7188 38.4961C68.6484 38.332 68.5781 38.168 68.5078 38.0039C68.4375 37.8398 68.3555 37.6992 68.2617 37.582L68.0508 37.2656ZM84.9609 27.8438C85.125 28.1484 85.207 28.5 85.207 28.8984C85.207 29.25 85.1367 29.625 84.9961 30.0234C84.8555 30.4219 84.6328 30.7266 84.3281 30.9375C84.1172 31.4062 83.9062 31.793 83.6953 32.0977C83.5078 32.3789 83.3203 32.6602 83.1328 32.9414C83.0625 33.1055 82.9922 33.2695 82.9219 33.4336C82.8516 33.5742 82.7578 33.7266 82.6406 33.8906C82.5703 34.0078 82.418 34.2422 82.1836 34.5938C81.9492 34.9453 81.7031 35.3203 81.4453 35.7188C81.2109 36.0938 81 36.457 80.8125 36.8086C80.625 37.1602 80.5312 37.3828 80.5312 37.4766C80.5312 37.5703 80.6367 37.6875 80.8477 37.8281C81.082 37.9688 81.2344 38.0742 81.3047 38.1445C81.4219 38.2617 81.5273 38.3789 81.6211 38.4961C81.7383 38.6133 81.8555 38.7305 81.9727 38.8477C82.2305 39.0586 82.4766 39.2695 82.7109 39.4805C82.9688 39.6914 83.2266 39.9258 83.4844 40.1836C83.9766 40.6289 84.4922 41.0508 85.0312 41.4492C85.5703 41.8477 86.0508 42.3164 86.4727 42.8555C86.8711 42.9727 87.1289 43.2539 87.2461 43.6992C87.3633 44.1445 87.3984 44.5664 87.3516 44.9648C87.3984 45.0352 87.4336 45.1055 87.457 45.1758C87.5039 45.2461 87.5508 45.3281 87.5977 45.4219C87.5977 45.7969 87.5391 46.0781 87.4219 46.2656C87.3281 46.4297 87.2227 46.6406 87.1055 46.8984C86.9883 47.1328 86.9062 47.3672 86.8594 47.6016C86.8359 47.8359 86.7656 48.0469 86.6484 48.2344C86.6016 48.3047 86.5312 48.3633 86.4375 48.4102C86.3672 48.457 86.3086 48.5273 86.2617 48.6211C86.168 48.7852 86.0859 48.9844 86.0156 49.2188C85.9688 49.4297 85.8984 49.6289 85.8047 49.8164C85.7344 50.0039 85.6406 50.1914 85.5234 50.3789C85.4297 50.5664 85.3477 50.7539 85.2773 50.9414C85.2305 51.0586 85.1836 51.1992 85.1367 51.3633C85.1133 51.5273 85.0078 51.6445 84.8203 51.7148C84.7031 52.1367 84.5391 52.5469 84.3281 52.9453C84.1406 53.3438 83.9883 53.7539 83.8711 54.1758C83.6602 54.2461 83.3906 54.375 83.0625 54.5625C82.7578 54.7734 82.5117 54.8789 82.3242 54.8789C82.2539 54.8789 82.1953 54.8438 82.1484 54.7734C82.1016 54.7031 82.0312 54.6445 81.9375 54.5977C81.8906 54.5742 81.8203 54.5742 81.7266 54.5977C81.6562 54.6211 81.5977 54.6328 81.5508 54.6328C81.4336 54.6328 81.3398 54.5859 81.2695 54.4922C81.2227 54.3984 81.1523 54.3281 81.0586 54.2812C80.9883 54.3047 80.918 54.3281 80.8477 54.3516C80.7773 54.375 80.707 54.3867 80.6367 54.3867C80.4727 54.3867 80.3789 54.3398 80.3555 54.2461C80.332 54.1758 80.2617 54.1055 80.1445 54.0352C79.8633 53.8945 79.6992 53.7656 79.6523 53.6484C79.6055 53.5312 79.5352 53.4492 79.4414 53.4023C79.6055 52.793 79.8281 52.2188 80.1094 51.6797C80.3906 51.1172 80.6602 50.5547 80.918 49.9922C80.9883 49.8047 81.0703 49.6289 81.1641 49.4648C81.2812 49.3008 81.3867 49.125 81.4805 48.9375C81.5508 48.7734 81.6562 48.5625 81.7969 48.3047C81.9375 48.0469 82.0664 47.7773 82.1836 47.4961C82.3008 47.2148 82.4062 46.957 82.5 46.7227C82.5938 46.4648 82.6406 46.2539 82.6406 46.0898C82.6406 45.7617 82.5469 45.5156 82.3594 45.3516C81.6797 44.7891 81.0352 44.2148 80.4258 43.6289C79.8398 43.043 79.2188 42.4453 78.5625 41.8359C78.1406 41.4609 77.6836 41.0742 77.1914 40.6758C77.0977 40.6055 77.0273 40.5 76.9805 40.3594C76.9336 40.2188 76.8633 40.0898 76.7695 39.9727C76.7227 39.8789 76.6523 39.8086 76.5586 39.7617C76.4648 39.7148 76.3945 39.6445 76.3477 39.5508C76.2773 39.457 76.2305 39.3516 76.207 39.2344C76.1836 39.0938 76.1133 38.9883 75.9961 38.918C75.8789 38.8008 75.7383 38.7305 75.5742 38.707C75.4102 38.6836 75.2695 38.6133 75.1523 38.4961C75.2227 38.4258 75.2578 38.3555 75.2578 38.2852C75.2344 38.1914 75.2227 38.1094 75.2227 38.0391C75.2227 37.875 75.293 37.7578 75.4336 37.6875C75.5742 37.6172 75.6445 37.4883 75.6445 37.3008C75.7383 37.1133 75.8086 36.9961 75.8555 36.9492C76.1133 36.3164 76.4062 35.707 76.7344 35.1211C77.0625 34.5352 77.4023 33.9492 77.7539 33.3633C77.8711 33.1758 77.9766 33 78.0703 32.8359C78.1875 32.6484 78.3047 32.4609 78.4219 32.2734C78.4922 32.1094 78.5508 31.9688 78.5977 31.8516C78.668 31.7109 78.7617 31.582 78.8789 31.4648C79.207 31.0898 79.4766 30.7383 79.6875 30.4102C79.9219 30.082 80.0977 29.6836 80.2148 29.2148C80.2383 29.0977 80.2852 28.9336 80.3555 28.7227C80.4258 28.5117 80.5078 28.3008 80.6016 28.0898C80.7188 27.8789 80.8359 27.6914 80.9531 27.5273C81.0703 27.3633 81.1992 27.2812 81.3398 27.2812C81.457 27.2812 81.6211 27.3281 81.832 27.4219C82.0664 27.5156 82.2656 27.5859 82.4297 27.6328C82.5703 27.6797 82.7109 27.7266 82.8516 27.7734C83.0156 27.7969 83.168 27.8086 83.3086 27.8086C83.4023 27.8086 83.4961 27.7852 83.5898 27.7383C83.6836 27.668 83.7891 27.6328 83.9062 27.6328C84.0938 27.6328 84.2695 27.668 84.4336 27.7383C84.5977 27.7852 84.7734 27.8203 84.9609 27.8438ZM105.105 27.9844C105.387 27.9141 105.586 27.8906 105.703 27.9141C105.82 27.9141 105.938 27.9258 106.055 27.9492C106.195 28.043 106.312 28.1602 106.406 28.3008C106.406 28.793 106.395 29.2852 106.371 29.7773C106.371 30.2461 106.371 30.7266 106.371 31.2188C106.371 32.1094 106.383 33 106.406 33.8906C106.43 34.7812 106.43 35.6719 106.406 36.5625C106.453 36.7734 106.465 36.8906 106.441 36.9141C106.418 36.9375 106.406 36.9727 106.406 37.0195C106.406 37.9102 106.43 38.7891 106.477 39.6562C106.523 40.5234 106.547 41.4023 106.547 42.293V46.9688C106.547 47.9766 106.57 48.9727 106.617 49.957C106.688 50.9414 106.723 51.9258 106.723 52.9102C106.723 53.0039 106.664 53.1328 106.547 53.2969C106.5 53.4844 106.43 53.6367 106.336 53.7539C106.125 53.7773 105.926 53.7422 105.738 53.6484C105.645 53.6484 105.574 53.6836 105.527 53.7539C105.504 53.8008 105.457 53.8477 105.387 53.8945C105.199 53.8945 105.047 53.9414 104.93 54.0352C104.812 54.1289 104.672 54.1758 104.508 54.1758C104.367 54.1758 104.227 54.1523 104.086 54.1055C103.969 54.082 103.828 54.0703 103.664 54.0703C103.617 54.0703 103.547 54.1055 103.453 54.1758C103.359 54.2695 103.289 54.3281 103.242 54.3516C103.125 54.3516 103.02 54.3633 102.926 54.3867C102.832 54.4336 102.727 54.457 102.609 54.457C102.492 54.3633 102.434 54.2227 102.434 54.0352C102.457 53.8477 102.387 53.7305 102.223 53.6836C102.223 53.5664 102.223 53.4375 102.223 53.2969C102.246 53.1562 102.258 53.0156 102.258 52.875C102.258 51.9609 102.234 51.0469 102.188 50.1328C102.141 49.1953 102.105 48.2695 102.082 47.3555C102.059 46.957 102.047 46.5703 102.047 46.1953C102.07 45.7969 102.082 45.3984 102.082 45C102.082 44.7891 102.082 44.5781 102.082 44.3672C102.082 44.1562 102.059 43.957 102.012 43.7695C101.871 43.7461 101.742 43.7695 101.625 43.8398C101.531 43.8867 101.426 43.9102 101.309 43.9102C100.816 44.0742 100.488 44.2383 100.324 44.4023C100.184 44.4023 100.066 44.4258 99.9727 44.4727C99.8789 44.5195 99.7734 44.5664 99.6562 44.6133C99.4688 44.6602 99.2812 44.707 99.0938 44.7539C98.9297 44.7773 98.7539 44.8242 98.5664 44.8945C98.4492 44.9414 98.332 44.9883 98.2148 45.0352C98.0977 45.082 97.9805 45.1289 97.8633 45.1758C97.6055 45.2695 97.3477 45.3633 97.0898 45.457C96.832 45.5273 96.5742 45.6094 96.3164 45.7031C96.0586 45.75 95.8359 45.8203 95.6484 45.9141C95.4609 46.0078 95.2734 46.1016 95.0859 46.1953C94.9219 47.2969 94.8281 48.3516 94.8047 49.3594C94.8047 50.3438 94.8398 51.3281 94.9102 52.3125C94.8633 52.4531 94.8398 52.6172 94.8398 52.8047C94.8398 52.9688 94.8047 53.1094 94.7344 53.2266C94.4766 53.2969 94.3008 53.3086 94.207 53.2617C94.1367 53.1914 94.0547 53.1328 93.9609 53.0859C93.8672 53.1094 93.7852 53.1562 93.7148 53.2266C93.668 53.2969 93.6211 53.3555 93.5742 53.4023C93.3867 53.4023 93.2344 53.4492 93.1172 53.543C93.0234 53.6133 92.9297 53.6719 92.8359 53.7188C92.7656 53.7422 92.6953 53.7422 92.625 53.7188C92.5547 53.6953 92.4727 53.707 92.3789 53.7539C92.1445 53.7539 92.0273 53.7305 92.0273 53.6836C92.0508 53.6133 92.0273 53.5781 91.957 53.5781C91.8633 53.5781 91.793 53.625 91.7461 53.7188C91.7227 53.7891 91.6641 53.8477 91.5703 53.8945C91.4766 53.9414 91.3711 53.9766 91.2539 54C91.1367 54 91.0195 54.0234 90.9023 54.0703C90.7852 53.9531 90.7266 53.8242 90.7266 53.6836C90.7266 53.543 90.668 53.4141 90.5508 53.2969C90.5039 52.9688 90.4688 52.6523 90.4453 52.3477C90.4453 52.0195 90.4102 51.6914 90.3398 51.3633C90.3867 50.707 90.3984 50.1797 90.375 49.7812C90.375 49.3828 90.375 48.9727 90.375 48.5508C90.375 48.1758 90.3633 47.8008 90.3398 47.4258C90.3164 47.0508 90.293 46.6758 90.2695 46.3008C90.2227 45.6211 90.1758 44.9297 90.1289 44.2266C90.1055 43.5234 90.0938 42.8203 90.0938 42.1172C90.0938 41.5312 90.1172 40.957 90.1641 40.3945C90.2344 39.832 90.2695 39.2578 90.2695 38.6719C90.2695 38.2734 90.2695 37.8867 90.2695 37.5117C90.293 37.1133 90.3047 36.7148 90.3047 36.3164C90.3047 35.9883 90.293 35.6719 90.2695 35.3672C90.2695 35.0391 90.2695 34.7227 90.2695 34.418C90.2695 34.0664 90.293 33.7266 90.3398 33.3984C90.3867 33.0469 90.4102 32.707 90.4102 32.3789C90.4102 31.9805 90.3867 31.5938 90.3398 31.2188C90.293 30.8203 90.2695 30.4219 90.2695 30.0234C90.2695 29.9062 90.2812 29.8008 90.3047 29.707C90.3281 29.5898 90.3398 29.4727 90.3398 29.3555C90.3164 29.0977 90.3281 28.9453 90.375 28.8984C90.4219 28.8281 90.4688 28.7461 90.5156 28.6523C90.6328 28.6289 90.7617 28.5938 90.9023 28.5469C91.043 28.5 91.1719 28.5 91.2891 28.5469C91.4297 28.4062 91.6172 28.3359 91.8516 28.3359C92.1094 28.3359 92.2969 28.2539 92.4141 28.0898C92.5781 28.1133 92.6836 28.125 92.7305 28.125C92.8008 28.1016 92.8594 28.0898 92.9062 28.0898C93.1172 28.1367 93.2227 28.1367 93.2227 28.0898C93.2461 28.0195 93.293 27.9844 93.3633 27.9844C93.4805 27.9844 93.6562 27.9961 93.8906 28.0195C94.1484 28.0195 94.3242 28.0664 94.418 28.1602C94.6523 29.4023 94.7812 30.668 94.8047 31.957C94.8281 33.2461 94.8398 34.5234 94.8398 35.7891C94.8398 36.1172 94.8516 36.457 94.875 36.8086C94.8984 37.1367 94.8867 37.4648 94.8398 37.793C94.8398 37.9336 94.8281 38.0742 94.8047 38.2148C94.7812 38.332 94.7695 38.4609 94.7695 38.6016C94.7695 39 94.7461 39.4219 94.6992 39.8672C94.6523 40.2891 94.6289 40.6992 94.6289 41.0977C94.9102 41.2617 95.1445 41.3203 95.332 41.2734C95.543 41.2031 95.7422 41.1328 95.9297 41.0625C96.1641 40.9922 96.375 40.9219 96.5625 40.8516C96.7734 40.7578 96.9844 40.6758 97.1953 40.6055C97.3828 40.5117 97.582 40.4414 97.793 40.3945C98.0273 40.3242 98.2383 40.2656 98.4258 40.2188C99.0352 40.0078 99.6328 39.75 100.219 39.4453C100.805 39.1406 101.402 38.8945 102.012 38.707C101.965 37.418 101.941 36.1406 101.941 34.875C101.941 33.5859 101.941 32.3086 101.941 31.043C101.941 30.6914 101.941 30.3281 101.941 29.9531C101.941 29.5781 101.965 29.2148 102.012 28.8633C102.035 28.7695 102.059 28.6992 102.082 28.6523C102.129 28.582 102.152 28.4883 102.152 28.3711C102.223 28.2539 102.305 28.1719 102.398 28.125C102.492 28.0781 102.562 28.0078 102.609 27.9141C102.656 27.9609 102.703 28.0078 102.75 28.0547C102.82 28.0781 102.891 28.1016 102.961 28.125C103.148 28.0781 103.254 28.043 103.277 28.0195C103.324 27.9961 103.371 27.9727 103.418 27.9492C103.535 27.9023 103.688 27.8789 103.875 27.8789C104.062 27.8789 104.215 27.8789 104.332 27.8789H104.754L105.105 27.9844ZM112.207 53.4375C112.137 53.4844 112.066 53.5312 111.996 53.5781C111.926 53.625 111.855 53.6719 111.785 53.7188C111.527 53.8594 111.293 53.9414 111.082 53.9648C110.871 53.9648 110.637 54.082 110.379 54.3164C110.285 54.1992 110.215 54.1406 110.168 54.1406C110.121 54.1406 110.039 54.1406 109.922 54.1406C109.617 54.1406 109.441 54.0586 109.395 53.8945C109.301 53.918 109.148 53.9766 108.938 54.0703C108.75 54.1641 108.609 54.2344 108.516 54.2812C108.727 53.9766 108.867 53.7422 108.938 53.5781C109.008 53.4141 109.043 53.2617 109.043 53.1211C109.066 52.9805 109.078 52.8398 109.078 52.6992C109.102 52.5352 109.16 52.3125 109.254 52.0312C109.301 51.9375 109.336 51.8438 109.359 51.75C109.383 51.6562 109.418 51.5508 109.465 51.4336C109.582 51.082 109.676 50.6836 109.746 50.2383C109.84 49.793 109.98 49.4062 110.168 49.0781C110.168 48.6797 110.25 48.3047 110.414 47.9531C110.602 47.6016 110.754 47.2383 110.871 46.8633C110.918 46.7227 110.977 46.582 111.047 46.4414C111.141 46.3008 111.211 46.1602 111.258 46.0195C111.352 45.7852 111.422 45.5625 111.469 45.3516C111.539 45.1172 111.609 44.8945 111.68 44.6836C111.867 44.0039 112.055 43.3359 112.242 42.6797C112.43 42 112.605 41.3203 112.77 40.6406C112.793 40.5234 112.816 40.3945 112.84 40.2539C112.887 40.1133 112.934 39.9844 112.98 39.8672C113.098 39.5156 113.168 39.1641 113.191 38.8125C113.238 38.4375 113.355 38.0859 113.543 37.7578C113.52 37.5938 113.52 37.4414 113.543 37.3008C113.59 37.1602 113.637 37.0078 113.684 36.8438C113.73 36.6797 113.777 36.5273 113.824 36.3867C113.871 36.2461 113.906 36.1406 113.93 36.0703C114.047 35.7656 114.129 35.4961 114.176 35.2617C114.246 35.0039 114.375 34.7344 114.562 34.4531C114.562 34.4531 114.598 34.3359 114.668 34.1016C114.738 33.8438 114.82 33.5625 114.914 33.2578C115.008 32.9531 115.09 32.6719 115.16 32.4141C115.23 32.1328 115.266 31.9688 115.266 31.9219C115.312 31.7344 115.348 31.5586 115.371 31.3945C115.418 31.2305 115.465 31.0547 115.512 30.8672C115.559 30.75 115.605 30.6562 115.652 30.5859C115.699 30.4922 115.746 30.3867 115.793 30.2695C115.863 30.0117 115.934 29.6953 116.004 29.3203C116.074 28.9453 116.168 28.6523 116.285 28.4414C116.355 28.2773 116.484 28.1484 116.672 28.0547C116.883 27.9375 117.059 27.8203 117.199 27.7031C117.621 27.75 117.926 27.7266 118.113 27.6328C118.324 27.5391 118.523 27.4219 118.711 27.2812C118.828 27.3047 118.934 27.3398 119.027 27.3867C119.145 27.4102 119.262 27.4219 119.379 27.4219C119.824 27.9141 120.129 28.418 120.293 28.9336C120.48 29.4492 120.656 29.9648 120.82 30.4805C120.891 30.7383 120.961 30.9961 121.031 31.2539C121.102 31.4883 121.184 31.7227 121.277 31.957C121.301 32.0273 121.336 32.1094 121.383 32.2031C121.43 32.2734 121.477 32.3555 121.523 32.4492C121.641 32.6367 121.734 32.8359 121.805 33.0469C121.898 33.2578 121.98 33.4688 122.051 33.6797C122.191 33.8438 122.297 34.043 122.367 34.2773C122.438 34.4883 122.496 34.7109 122.543 34.9453C122.613 35.1562 122.684 35.3672 122.754 35.5781C122.824 35.7656 122.93 35.9297 123.07 36.0703C123.117 36.3281 123.199 36.5859 123.316 36.8438C123.434 37.0781 123.516 37.3359 123.562 37.6172C123.703 37.8047 123.867 38.168 124.055 38.707C124.242 39.2227 124.43 39.7852 124.617 40.3945C124.805 41.0039 124.98 41.5898 125.145 42.1523C125.309 42.7148 125.426 43.1133 125.496 43.3477C125.543 43.5352 125.637 43.7812 125.777 44.0859C125.918 44.3672 126.047 44.625 126.164 44.8594C126.258 45.1172 126.352 45.3867 126.445 45.668C126.562 45.9492 126.656 46.2188 126.727 46.4766C126.773 46.7344 126.82 46.9805 126.867 47.2148C126.938 47.4492 127.008 47.6953 127.078 47.9531C127.125 48.1172 127.195 48.2695 127.289 48.4102C127.383 48.5273 127.453 48.6797 127.5 48.8672C127.594 49.0547 127.652 49.2305 127.676 49.3945C127.723 49.5586 127.805 49.7344 127.922 49.9219C127.898 50.1797 127.91 50.3438 127.957 50.4141C128.004 50.4844 128.051 50.5664 128.098 50.6602C128.191 51.1523 128.297 51.5508 128.414 51.8555C128.531 52.1367 128.59 52.4414 128.59 52.7695C128.59 53.0508 128.531 53.2266 128.414 53.2969C128.32 53.3672 128.191 53.4844 128.027 53.6484C127.84 53.8125 127.676 53.9414 127.535 54.0352C127.418 54.1289 127.23 54.1758 126.973 54.1758C126.691 54.1523 126.516 54.1875 126.445 54.2812C126.398 54.3984 126.363 54.4805 126.34 54.5273C126.059 54.5039 125.871 54.4922 125.777 54.4922C125.707 54.5156 125.625 54.5273 125.531 54.5273C125.461 54.5273 125.379 54.5391 125.285 54.5625C125.215 54.6094 125.133 54.6914 125.039 54.8086C124.875 54.6211 124.711 54.4453 124.547 54.2812C124.406 54.1406 124.277 53.9766 124.16 53.7891C124.16 53.3906 124.102 52.9219 123.984 52.3828C123.891 51.8438 123.785 51.4219 123.668 51.1172C123.434 50.5078 123.211 49.9102 123 49.3242C122.812 48.7383 122.625 48.1406 122.438 47.5312C122.367 47.2734 122.285 47.0391 122.191 46.8281C122.121 46.6172 122.039 46.3945 121.945 46.1602C121.992 46.3477 122.004 46.5469 121.98 46.7578C121.98 46.9453 121.922 47.1328 121.805 47.3203C121.758 47.3672 121.688 47.4258 121.594 47.4961C121.5 47.5664 121.453 47.625 121.453 47.6719C121.172 47.9062 120.926 48.1289 120.715 48.3398C120.738 48.7617 120.68 49.0547 120.539 49.2188C120.398 49.3828 120.246 49.5352 120.082 49.6758C119.684 49.6992 119.438 49.6758 119.344 49.6055C119.25 49.5352 119.121 49.4883 118.957 49.4648C118.863 49.4414 118.77 49.4414 118.676 49.4648C118.582 49.4648 118.488 49.4648 118.395 49.4648C118.207 49.4648 118.031 49.418 117.867 49.3242C117.797 49.2773 117.738 49.2305 117.691 49.1836C117.668 49.1367 117.633 49.0898 117.586 49.043C117.398 48.8555 117.176 48.7031 116.918 48.5859C116.684 48.4453 116.449 48.3281 116.215 48.2344C116.027 48.0703 115.828 47.9062 115.617 47.7422C115.43 47.5547 115.23 47.4023 115.02 47.2852C114.832 47.7305 114.68 48.1289 114.562 48.4805C114.469 48.8086 114.352 49.1367 114.211 49.4648C113.953 50.2617 113.742 50.9648 113.578 51.5742C113.414 52.1602 113.227 52.7578 113.016 53.3672C112.922 53.3906 112.828 53.4258 112.734 53.4727C112.664 53.5195 112.57 53.543 112.453 53.543L112.207 53.4375ZM115.652 45.9492C115.84 45.6211 116.004 45.4453 116.145 45.4219C116.309 45.375 116.449 45.2812 116.566 45.1406C116.613 45.0938 116.66 45.0352 116.707 44.9648C116.777 44.8945 116.848 44.8242 116.918 44.7539C116.988 44.707 117.07 44.6602 117.164 44.6133C117.258 44.5664 117.34 44.5078 117.41 44.4375C117.598 44.2734 117.75 44.1328 117.867 44.0156C118.008 43.8984 118.207 43.8398 118.465 43.8398C118.863 43.8398 119.191 43.9453 119.449 44.1562C119.707 44.3438 120.023 44.4727 120.398 44.543C120.445 44.6836 120.598 44.7891 120.855 44.8594C121.113 44.9062 121.312 44.9766 121.453 45.0703C121.219 44.4844 121.031 43.8984 120.891 43.3125C120.773 42.7031 120.621 42.1055 120.434 41.5195C120.293 41.0039 120.129 40.5 119.941 40.0078C119.754 39.4922 119.566 39 119.379 38.5312C119.215 38.0625 119.074 37.6055 118.957 37.1602C118.84 36.7148 118.688 36.2812 118.5 35.8594C118.312 36.2812 118.125 36.7969 117.938 37.4062C117.75 38.0156 117.609 38.5547 117.516 39.0234C117.516 39.2344 117.504 39.3984 117.48 39.5156C117.434 39.6797 117.387 39.832 117.34 39.9727C117.293 40.0898 117.246 40.2188 117.199 40.3594C116.895 41.2734 116.613 42.1992 116.355 43.1367C116.121 44.0742 115.84 45.0117 115.512 45.9492H115.652Z" fill="#8B53FF"/>
</svg>
