<svg width="119" height="47" viewBox="0 0 119 47" fill="none" xmlns="http://www.w3.org/2000/svg">
<path d="M16.9258 36.4375C16.8555 36.4844 16.7852 36.5312 16.7148 36.5781C16.6445 36.625 16.5742 36.6719 16.5039 36.7188C16.2461 36.8594 16.0117 36.9414 15.8008 36.9648C15.5898 36.9648 15.3555 37.082 15.0977 37.3164C15.0039 37.1992 14.9336 37.1406 14.8867 37.1406C14.8398 37.1406 14.7578 37.1406 14.6406 37.1406C14.3359 37.1406 14.1602 37.0586 14.1133 36.8945C14.0195 36.918 13.8672 36.9766 13.6562 37.0703C13.4688 37.1641 13.3281 37.2344 13.2344 37.2812C13.4453 36.9766 13.5859 36.7422 13.6562 36.5781C13.7266 36.4141 13.7617 36.2617 13.7617 36.1211C13.7852 35.9805 13.7969 35.8398 13.7969 35.6992C13.8203 35.5352 13.8789 35.3125 13.9727 35.0312C14.0195 34.9375 14.0547 34.8438 14.0781 34.75C14.1016 34.6562 14.1367 34.5508 14.1836 34.4336C14.3008 34.082 14.3945 33.6836 14.4648 33.2383C14.5586 32.793 14.6992 32.4062 14.8867 32.0781C14.8867 31.6797 14.9688 31.3047 15.1328 30.9531C15.3203 30.6016 15.4727 30.2383 15.5898 29.8633C15.6367 29.7227 15.6953 29.582 15.7656 29.4414C15.8594 29.3008 15.9297 29.1602 15.9766 29.0195C16.0703 28.7852 16.1406 28.5625 16.1875 28.3516C16.2578 28.1172 16.3281 27.8945 16.3984 27.6836C16.5859 27.0039 16.7734 26.3359 16.9609 25.6797C17.1484 25 17.3242 24.3203 17.4883 23.6406C17.5117 23.5234 17.5352 23.3945 17.5586 23.2539C17.6055 23.1133 17.6523 22.9844 17.6992 22.8672C17.8164 22.5156 17.8867 22.1641 17.9102 21.8125C17.957 21.4375 18.0742 21.0859 18.2617 20.7578C18.2383 20.5938 18.2383 20.4414 18.2617 20.3008C18.3086 20.1602 18.3555 20.0078 18.4023 19.8438C18.4492 19.6797 18.4961 19.5273 18.543 19.3867C18.5898 19.2461 18.625 19.1406 18.6484 19.0703C18.7656 18.7656 18.8477 18.4961 18.8945 18.2617C18.9648 18.0039 19.0938 17.7344 19.2812 17.4531C19.2812 17.4531 19.3164 17.3359 19.3867 17.1016C19.457 16.8438 19.5391 16.5625 19.6328 16.2578C19.7266 15.9531 19.8086 15.6719 19.8789 15.4141C19.9492 15.1328 19.9844 14.9688 19.9844 14.9219C20.0312 14.7344 20.0664 14.5586 20.0898 14.3945C20.1367 14.2305 20.1836 14.0547 20.2305 13.8672C20.2773 13.75 20.3242 13.6562 20.3711 13.5859C20.418 13.4922 20.4648 13.3867 20.5117 13.2695C20.582 13.0117 20.6523 12.6953 20.7227 12.3203C20.793 11.9453 20.8867 11.6523 21.0039 11.4414C21.0742 11.2773 21.2031 11.1484 21.3906 11.0547C21.6016 10.9375 21.7773 10.8203 21.918 10.7031C22.3398 10.75 22.6445 10.7266 22.832 10.6328C23.043 10.5391 23.2422 10.4219 23.4297 10.2812C23.5469 10.3047 23.6523 10.3398 23.7461 10.3867C23.8633 10.4102 23.9805 10.4219 24.0977 10.4219C24.543 10.9141 24.8477 11.418 25.0117 11.9336C25.1992 12.4492 25.375 12.9648 25.5391 13.4805C25.6094 13.7383 25.6797 13.9961 25.75 14.2539C25.8203 14.4883 25.9023 14.7227 25.9961 14.957C26.0195 15.0273 26.0547 15.1094 26.1016 15.2031C26.1484 15.2734 26.1953 15.3555 26.2422 15.4492C26.3594 15.6367 26.4531 15.8359 26.5234 16.0469C26.6172 16.2578 26.6992 16.4688 26.7695 16.6797C26.9102 16.8438 27.0156 17.043 27.0859 17.2773C27.1562 17.4883 27.2148 17.7109 27.2617 17.9453C27.332 18.1562 27.4023 18.3672 27.4727 18.5781C27.543 18.7656 27.6484 18.9297 27.7891 19.0703C27.8359 19.3281 27.918 19.5859 28.0352 19.8438C28.1523 20.0781 28.2344 20.3359 28.2812 20.6172C28.4219 20.8047 28.5859 21.168 28.7734 21.707C28.9609 22.2227 29.1484 22.7852 29.3359 23.3945C29.5234 24.0039 29.6992 24.5898 29.8633 25.1523C30.0273 25.7148 30.1445 26.1133 30.2148 26.3477C30.2617 26.5352 30.3555 26.7812 30.4961 27.0859C30.6367 27.3672 30.7656 27.625 30.8828 27.8594C30.9766 28.1172 31.0703 28.3867 31.1641 28.668C31.2812 28.9492 31.375 29.2188 31.4453 29.4766C31.4922 29.7344 31.5391 29.9805 31.5859 30.2148C31.6562 30.4492 31.7266 30.6953 31.7969 30.9531C31.8438 31.1172 31.9141 31.2695 32.0078 31.4102C32.1016 31.5273 32.1719 31.6797 32.2188 31.8672C32.3125 32.0547 32.3711 32.2305 32.3945 32.3945C32.4414 32.5586 32.5234 32.7344 32.6406 32.9219C32.6172 33.1797 32.6289 33.3438 32.6758 33.4141C32.7227 33.4844 32.7695 33.5664 32.8164 33.6602C32.9102 34.1523 33.0156 34.5508 33.1328 34.8555C33.25 35.1367 33.3086 35.4414 33.3086 35.7695C33.3086 36.0508 33.25 36.2266 33.1328 36.2969C33.0391 36.3672 32.9102 36.4844 32.7461 36.6484C32.5586 36.8125 32.3945 36.9414 32.2539 37.0352C32.1367 37.1289 31.9492 37.1758 31.6914 37.1758C31.4102 37.1523 31.2344 37.1875 31.1641 37.2812C31.1172 37.3984 31.082 37.4805 31.0586 37.5273C30.7773 37.5039 30.5898 37.4922 30.4961 37.4922C30.4258 37.5156 30.3438 37.5273 30.25 37.5273C30.1797 37.5273 30.0977 37.5391 30.0039 37.5625C29.9336 37.6094 29.8516 37.6914 29.7578 37.8086C29.5938 37.6211 29.4297 37.4453 29.2656 37.2812C29.125 37.1406 28.9961 36.9766 28.8789 36.7891C28.8789 36.3906 28.8203 35.9219 28.7031 35.3828C28.6094 34.8438 28.5039 34.4219 28.3867 34.1172C28.1523 33.5078 27.9297 32.9102 27.7188 32.3242C27.5312 31.7383 27.3438 31.1406 27.1562 30.5312C27.0859 30.2734 27.0039 30.0391 26.9102 29.8281C26.8398 29.6172 26.7578 29.3945 26.6641 29.1602C26.7109 29.3477 26.7227 29.5469 26.6992 29.7578C26.6992 29.9453 26.6406 30.1328 26.5234 30.3203C26.4766 30.3672 26.4062 30.4258 26.3125 30.4961C26.2188 30.5664 26.1719 30.625 26.1719 30.6719C25.8906 30.9062 25.6445 31.1289 25.4336 31.3398C25.457 31.7617 25.3984 32.0547 25.2578 32.2188C25.1172 32.3828 24.9648 32.5352 24.8008 32.6758C24.4023 32.6992 24.1562 32.6758 24.0625 32.6055C23.9688 32.5352 23.8398 32.4883 23.6758 32.4648C23.582 32.4414 23.4883 32.4414 23.3945 32.4648C23.3008 32.4648 23.207 32.4648 23.1133 32.4648C22.9258 32.4648 22.75 32.418 22.5859 32.3242C22.5156 32.2773 22.457 32.2305 22.4102 32.1836C22.3867 32.1367 22.3516 32.0898 22.3047 32.043C22.1172 31.8555 21.8945 31.7031 21.6367 31.5859C21.4023 31.4453 21.168 31.3281 20.9336 31.2344C20.7461 31.0703 20.5469 30.9062 20.3359 30.7422C20.1484 30.5547 19.9492 30.4023 19.7383 30.2852C19.5508 30.7305 19.3984 31.1289 19.2812 31.4805C19.1875 31.8086 19.0703 32.1367 18.9297 32.4648C18.6719 33.2617 18.4609 33.9648 18.2969 34.5742C18.1328 35.1602 17.9453 35.7578 17.7344 36.3672C17.6406 36.3906 17.5469 36.4258 17.4531 36.4727C17.3828 36.5195 17.2891 36.543 17.1719 36.543L16.9258 36.4375ZM20.3711 28.9492C20.5586 28.6211 20.7227 28.4453 20.8633 28.4219C21.0273 28.375 21.168 28.2812 21.2852 28.1406C21.332 28.0938 21.3789 28.0352 21.4258 27.9648C21.4961 27.8945 21.5664 27.8242 21.6367 27.7539C21.707 27.707 21.7891 27.6602 21.8828 27.6133C21.9766 27.5664 22.0586 27.5078 22.1289 27.4375C22.3164 27.2734 22.4688 27.1328 22.5859 27.0156C22.7266 26.8984 22.9258 26.8398 23.1836 26.8398C23.582 26.8398 23.9102 26.9453 24.168 27.1562C24.4258 27.3438 24.7422 27.4727 25.1172 27.543C25.1641 27.6836 25.3164 27.7891 25.5742 27.8594C25.832 27.9062 26.0312 27.9766 26.1719 28.0703C25.9375 27.4844 25.75 26.8984 25.6094 26.3125C25.4922 25.7031 25.3398 25.1055 25.1523 24.5195C25.0117 24.0039 24.8477 23.5 24.6602 23.0078C24.4727 22.4922 24.2852 22 24.0977 21.5312C23.9336 21.0625 23.793 20.6055 23.6758 20.1602C23.5586 19.7148 23.4062 19.2812 23.2188 18.8594C23.0312 19.2812 22.8438 19.7969 22.6562 20.4062C22.4688 21.0156 22.3281 21.5547 22.2344 22.0234C22.2344 22.2344 22.2227 22.3984 22.1992 22.5156C22.1523 22.6797 22.1055 22.832 22.0586 22.9727C22.0117 23.0898 21.9648 23.2188 21.918 23.3594C21.6133 24.2734 21.332 25.1992 21.0742 26.1367C20.8398 27.0742 20.5586 28.0117 20.2305 28.9492H20.3711ZM43.2227 11.125C43.293 11.0781 43.3516 11.0313 43.3984 10.9844C43.4688 10.9375 43.5508 10.9023 43.6445 10.8789C43.7617 10.9258 43.8789 10.9844 43.9961 11.0547C44.1133 11.125 44.2305 11.1836 44.3477 11.2305C44.7461 11.6289 45.0742 12.1445 45.332 12.7773C45.4492 13.0352 45.6133 13.2695 45.8242 13.4805C46.0586 13.6914 46.2461 13.9375 46.3867 14.2188C46.4805 14.4063 46.5742 14.5703 46.668 14.7109C46.7617 14.8516 46.8672 15.0156 46.9844 15.2031C47.3594 15.7187 47.7109 16.2812 48.0391 16.8906C48.3906 17.5 48.7422 18.0742 49.0938 18.6133C49.4219 19.1992 49.7383 19.7852 50.043 20.3711C50.3711 20.9336 50.7109 21.5078 51.0625 22.0938C51.0625 22.2109 51.1094 22.3398 51.2031 22.4805C51.2266 22.8555 51.2266 23.0898 51.2031 23.1836C51.2969 23.3477 51.4141 23.4766 51.5547 23.5703C51.7188 23.6641 51.8594 23.7695 51.9766 23.8867C52 24.0742 51.9648 24.25 51.8711 24.4141C51.8008 24.5547 51.7539 24.7188 51.7305 24.9062C51.4258 25.4219 51.0977 25.9492 50.7461 26.4883C50.5586 26.7461 50.3828 27.0156 50.2188 27.2969C50.0781 27.5781 49.9141 27.8477 49.7266 28.1055C49.6094 28.3633 49.5156 28.5625 49.4453 28.7031C49.375 28.8203 49.3164 28.9375 49.2695 29.0547C49.0352 29.3125 48.8711 29.6055 48.7773 29.9336C48.6836 30.2383 48.5078 30.5195 48.25 30.7773C48.2969 31.0586 48.4727 31.3633 48.7773 31.6914C49.1055 31.9961 49.375 32.2422 49.5859 32.4297C49.6562 32.5703 49.7383 32.6992 49.832 32.8164C49.9258 32.9102 50.0195 33.0156 50.1133 33.1328C50.1602 33.1797 50.207 33.2266 50.2539 33.2734C50.3242 33.3203 50.3945 33.3672 50.4648 33.4141C50.4883 33.5781 50.5469 33.7188 50.6406 33.8359C50.7578 33.9297 50.8867 34 51.0273 34.0469C51.1211 34.3047 51.2031 34.4688 51.2734 34.5391C51.3672 34.5859 51.4141 34.6445 51.4141 34.7148C51.4141 34.832 51.3906 34.9609 51.3438 35.1016C51.2031 35.2656 51.0508 35.4414 50.8867 35.6289C50.7227 35.793 50.5469 35.9336 50.3594 36.0508C50.2891 36.1914 50.207 36.3672 50.1133 36.5781C50.043 36.7656 49.9492 36.9531 49.832 37.1406C49.7383 37.3516 49.6328 37.5391 49.5156 37.7031C49.3984 37.8672 49.2812 37.9727 49.1641 38.0195C48.8594 37.8555 48.707 37.6914 48.707 37.5273C48.6367 37.5039 48.5195 37.4102 48.3555 37.2461C48.2148 37.1055 48.1445 37.0117 48.1445 36.9648C47.5586 36.6367 47.0898 36.2031 46.7383 35.6641C46.668 35.6172 46.5977 35.582 46.5273 35.5586C46.4805 35.5117 46.4219 35.4766 46.3516 35.4531C46.3047 35.3359 46.2344 35.2539 46.1406 35.207C46.0703 35.1367 46.0117 35.043 45.9648 34.9258C45.8945 34.8789 45.8008 34.9375 45.6836 35.1016C45.5664 35.2656 45.4375 35.4531 45.2969 35.6641C45.1797 35.875 45.0742 36.0859 44.9805 36.2969C44.8867 36.4844 44.8281 36.6016 44.8047 36.6484C44.6641 36.7656 44.5234 36.8828 44.3828 37C44.2656 37.1406 44.1367 37.2695 43.9961 37.3867C43.7148 37.5977 43.5156 37.75 43.3984 37.8438C43.3047 37.9375 43.2344 38.0781 43.1875 38.2656C42.9766 38.3594 42.8477 38.418 42.8008 38.4414C42.7539 38.4648 42.707 38.4766 42.6602 38.4766C42.543 38.4766 42.4023 38.3945 42.2383 38.2305C42.0977 38.0898 41.9805 37.9844 41.8867 37.9141C41.7695 37.8906 41.6406 37.8672 41.5 37.8438C41.3828 37.8203 41.2773 37.75 41.1836 37.6328C41.043 37.375 40.9375 37.1641 40.8672 37C40.8203 36.8125 40.7031 36.6836 40.5156 36.6133C40.5156 36.4961 40.4805 36.4141 40.4102 36.3672C40.3633 36.3203 40.3047 36.25 40.2344 36.1562C40.0469 35.8984 39.8711 35.5938 39.707 35.2422C39.5664 34.8906 39.4023 34.5625 39.2148 34.2578C39.0273 33.9766 38.8164 33.6953 38.582 33.4141C38.3477 33.1328 38.125 32.8633 37.9141 32.6055C37.8438 32.5117 37.7617 32.418 37.668 32.3242C37.5977 32.2305 37.5273 32.1367 37.457 32.043C37.3164 31.7852 37.1641 31.5391 37 31.3047C36.8594 31.0469 36.707 30.8008 36.543 30.5664C36.4961 30.4961 36.4375 30.4375 36.3672 30.3906C36.3203 30.3203 36.2734 30.2383 36.2266 30.1445C36.0859 29.957 35.9688 29.7695 35.875 29.582C35.7812 29.3945 35.6758 29.1953 35.5586 28.9844C35.3711 28.5859 35.1484 28.2227 34.8906 27.8945C34.6562 27.543 34.4453 27.1797 34.2578 26.8047C34.0703 26.3828 33.8828 26.0078 33.6953 25.6797C33.5078 25.3281 33.3438 24.9883 33.2031 24.6602C33.2031 24.5898 33.1914 24.5195 33.168 24.4492C33.168 24.3789 33.1562 24.2969 33.1328 24.2031C33.25 23.8984 33.332 23.6875 33.3789 23.5703C33.4492 23.4531 33.4844 23.3359 33.4844 23.2188C33.5312 23.1484 33.5781 23.0781 33.625 23.0078C33.6953 22.9141 33.7422 22.8086 33.7656 22.6914C34.3281 21.9414 34.8438 21.168 35.3125 20.3711C35.8047 19.5742 36.2969 18.7891 36.7891 18.0156C37.3281 17.2188 37.8203 16.4219 38.2656 15.625C38.7344 14.8047 39.2266 14.0078 39.7422 13.2344C39.7422 13.0938 39.7656 13 39.8125 12.9531C39.8828 12.8828 39.918 12.8008 39.918 12.707C40.0352 12.5898 40.1406 12.4492 40.2344 12.2852C40.3281 12.1211 40.3984 11.957 40.4453 11.793C40.5156 11.6758 40.5859 11.5586 40.6562 11.4414C40.75 11.3242 40.8203 11.1953 40.8672 11.0547C40.9609 10.9844 41.0312 10.9023 41.0781 10.8086C41.1484 10.7148 41.2188 10.6211 41.2891 10.5273C41.4062 10.4805 41.4883 10.4219 41.5352 10.3516C41.582 10.2812 41.6992 10.2461 41.8867 10.2461C41.957 10.2461 42.0156 10.2578 42.0625 10.2812C42.1328 10.2812 42.2031 10.2695 42.2734 10.2461C42.3906 10.293 42.4727 10.3633 42.5195 10.457C42.5898 10.5508 42.6953 10.6094 42.8359 10.6328C42.8828 10.75 42.9414 10.8438 43.0117 10.9141C43.1055 10.9609 43.1758 11.0313 43.2227 11.125ZM45.0508 20.2656C44.8398 19.9375 44.6406 19.6211 44.4531 19.3164C44.2891 18.9883 44.0898 18.6836 43.8555 18.4023C43.832 18.332 43.7734 18.2266 43.6797 18.0859C43.6094 17.9219 43.5156 17.7695 43.3984 17.6289C43.3047 17.4883 43.1992 17.3594 43.082 17.2422C42.9648 17.125 42.8711 17.0664 42.8008 17.0664C42.6367 17.1836 42.4844 17.2891 42.3438 17.3828C42.25 17.6641 42.1211 17.9453 41.957 18.2266C41.793 18.5078 41.6289 18.7773 41.4648 19.0352C41.3008 19.2227 41.1484 19.3984 41.0078 19.5625C40.8906 19.7031 40.7969 19.9023 40.7266 20.1602C40.6094 20.2773 40.5039 20.3945 40.4102 20.5117C40.3398 20.6055 40.2578 20.7109 40.1641 20.8281C40.0938 21.0625 39.9648 21.3203 39.7773 21.6016C39.6133 21.8828 39.4375 22.1641 39.25 22.4453C39.0625 22.7266 38.875 23.0078 38.6875 23.2891C38.5 23.5703 38.3359 23.8281 38.1953 24.0625C38.0312 24.2734 37.9375 24.4258 37.9141 24.5195C37.9141 24.6133 37.9023 24.707 37.8789 24.8008C37.9961 25.1289 38.1602 25.4336 38.3711 25.7148C38.582 25.9961 38.7695 26.2891 38.9336 26.5938C39.1211 26.9219 39.2852 27.2383 39.4258 27.543C39.5664 27.8477 39.7656 28.1289 40.0234 28.3867C40.4453 28.9258 40.832 29.5 41.1836 30.1094C41.5586 30.6953 41.9922 31.2227 42.4844 31.6914C42.6484 31.5508 42.7539 31.375 42.8008 31.1641C42.9648 30.9766 43.1172 30.7773 43.2578 30.5664C43.3984 30.3555 43.5273 30.1562 43.6445 29.9688C43.7383 29.7344 43.8555 29.5 43.9961 29.2656C44.207 28.9375 44.418 28.6328 44.6289 28.3516C44.8633 28.0469 45.0508 27.7305 45.1914 27.4023C45.332 27.2148 45.4492 27.0273 45.543 26.8398C45.6367 26.6289 45.7773 26.4414 45.9648 26.2773C46.0117 25.9961 46.1055 25.7617 46.2461 25.5742C46.4102 25.3633 46.5625 25.1523 46.7031 24.9414C46.75 24.7773 46.8086 24.6367 46.8789 24.5195C46.9492 24.4023 47.0195 24.2734 47.0898 24.1328C46.9258 23.6641 46.7148 23.2188 46.457 22.7969C46.2227 22.3516 45.9766 21.918 45.7188 21.4961C45.6484 21.332 45.5781 21.168 45.5078 21.0039C45.4375 20.8398 45.3555 20.6992 45.2617 20.582L45.0508 20.2656ZM61.9609 10.8438C62.125 11.1484 62.207 11.5 62.207 11.8984C62.207 12.25 62.1367 12.625 61.9961 13.0234C61.8555 13.4219 61.6328 13.7266 61.3281 13.9375C61.1172 14.4063 60.9062 14.793 60.6953 15.0977C60.5078 15.3789 60.3203 15.6602 60.1328 15.9414C60.0625 16.1055 59.9922 16.2695 59.9219 16.4336C59.8516 16.5742 59.7578 16.7266 59.6406 16.8906C59.5703 17.0078 59.418 17.2422 59.1836 17.5938C58.9492 17.9453 58.7031 18.3203 58.4453 18.7188C58.2109 19.0938 58 19.457 57.8125 19.8086C57.625 20.1602 57.5312 20.3828 57.5312 20.4766C57.5312 20.5703 57.6367 20.6875 57.8477 20.8281C58.082 20.9688 58.2344 21.0742 58.3047 21.1445C58.4219 21.2617 58.5273 21.3789 58.6211 21.4961C58.7383 21.6133 58.8555 21.7305 58.9727 21.8477C59.2305 22.0586 59.4766 22.2695 59.7109 22.4805C59.9688 22.6914 60.2266 22.9258 60.4844 23.1836C60.9766 23.6289 61.4922 24.0508 62.0312 24.4492C62.5703 24.8477 63.0508 25.3164 63.4727 25.8555C63.8711 25.9727 64.1289 26.2539 64.2461 26.6992C64.3633 27.1445 64.3984 27.5664 64.3516 27.9648C64.3984 28.0352 64.4336 28.1055 64.457 28.1758C64.5039 28.2461 64.5508 28.3281 64.5977 28.4219C64.5977 28.7969 64.5391 29.0781 64.4219 29.2656C64.3281 29.4297 64.2227 29.6406 64.1055 29.8984C63.9883 30.1328 63.9062 30.3672 63.8594 30.6016C63.8359 30.8359 63.7656 31.0469 63.6484 31.2344C63.6016 31.3047 63.5312 31.3633 63.4375 31.4102C63.3672 31.457 63.3086 31.5273 63.2617 31.6211C63.168 31.7852 63.0859 31.9844 63.0156 32.2188C62.9688 32.4297 62.8984 32.6289 62.8047 32.8164C62.7344 33.0039 62.6406 33.1914 62.5234 33.3789C62.4297 33.5664 62.3477 33.7539 62.2773 33.9414C62.2305 34.0586 62.1836 34.1992 62.1367 34.3633C62.1133 34.5273 62.0078 34.6445 61.8203 34.7148C61.7031 35.1367 61.5391 35.5469 61.3281 35.9453C61.1406 36.3438 60.9883 36.7539 60.8711 37.1758C60.6602 37.2461 60.3906 37.375 60.0625 37.5625C59.7578 37.7734 59.5117 37.8789 59.3242 37.8789C59.2539 37.8789 59.1953 37.8438 59.1484 37.7734C59.1016 37.7031 59.0312 37.6445 58.9375 37.5977C58.8906 37.5742 58.8203 37.5742 58.7266 37.5977C58.6562 37.6211 58.5977 37.6328 58.5508 37.6328C58.4336 37.6328 58.3398 37.5859 58.2695 37.4922C58.2227 37.3984 58.1523 37.3281 58.0586 37.2812C57.9883 37.3047 57.918 37.3281 57.8477 37.3516C57.7773 37.375 57.707 37.3867 57.6367 37.3867C57.4727 37.3867 57.3789 37.3398 57.3555 37.2461C57.332 37.1758 57.2617 37.1055 57.1445 37.0352C56.8633 36.8945 56.6992 36.7656 56.6523 36.6484C56.6055 36.5312 56.5352 36.4492 56.4414 36.4023C56.6055 35.793 56.8281 35.2188 57.1094 34.6797C57.3906 34.1172 57.6602 33.5547 57.918 32.9922C57.9883 32.8047 58.0703 32.6289 58.1641 32.4648C58.2812 32.3008 58.3867 32.125 58.4805 31.9375C58.5508 31.7734 58.6562 31.5625 58.7969 31.3047C58.9375 31.0469 59.0664 30.7773 59.1836 30.4961C59.3008 30.2148 59.4062 29.957 59.5 29.7227C59.5938 29.4648 59.6406 29.2539 59.6406 29.0898C59.6406 28.7617 59.5469 28.5156 59.3594 28.3516C58.6797 27.7891 58.0352 27.2148 57.4258 26.6289C56.8398 26.043 56.2188 25.4453 55.5625 24.8359C55.1406 24.4609 54.6836 24.0742 54.1914 23.6758C54.0977 23.6055 54.0273 23.5 53.9805 23.3594C53.9336 23.2188 53.8633 23.0898 53.7695 22.9727C53.7227 22.8789 53.6523 22.8086 53.5586 22.7617C53.4648 22.7148 53.3945 22.6445 53.3477 22.5508C53.2773 22.457 53.2305 22.3516 53.207 22.2344C53.1836 22.0938 53.1133 21.9883 52.9961 21.918C52.8789 21.8008 52.7383 21.7305 52.5742 21.707C52.4102 21.6836 52.2695 21.6133 52.1523 21.4961C52.2227 21.4258 52.2578 21.3555 52.2578 21.2852C52.2344 21.1914 52.2227 21.1094 52.2227 21.0391C52.2227 20.875 52.293 20.7578 52.4336 20.6875C52.5742 20.6172 52.6445 20.4883 52.6445 20.3008C52.7383 20.1133 52.8086 19.9961 52.8555 19.9492C53.1133 19.3164 53.4062 18.707 53.7344 18.1211C54.0625 17.5352 54.4023 16.9492 54.7539 16.3633C54.8711 16.1758 54.9766 16 55.0703 15.8359C55.1875 15.6484 55.3047 15.4609 55.4219 15.2734C55.4922 15.1094 55.5508 14.9688 55.5977 14.8516C55.668 14.7109 55.7617 14.582 55.8789 14.4648C56.207 14.0898 56.4766 13.7383 56.6875 13.4102C56.9219 13.082 57.0977 12.6836 57.2148 12.2148C57.2383 12.0977 57.2852 11.9336 57.3555 11.7227C57.4258 11.5117 57.5078 11.3008 57.6016 11.0898C57.7188 10.8789 57.8359 10.6914 57.9531 10.5273C58.0703 10.3633 58.1992 10.2812 58.3398 10.2812C58.457 10.2812 58.6211 10.3281 58.832 10.4219C59.0664 10.5156 59.2656 10.5859 59.4297 10.6328C59.5703 10.6797 59.7109 10.7266 59.8516 10.7734C60.0156 10.7969 60.168 10.8086 60.3086 10.8086C60.4023 10.8086 60.4961 10.7852 60.5898 10.7383C60.6836 10.668 60.7891 10.6328 60.9062 10.6328C61.0938 10.6328 61.2695 10.668 61.4336 10.7383C61.5977 10.7852 61.7734 10.8203 61.9609 10.8438ZM82.1055 10.9844C82.3867 10.9141 82.5859 10.8906 82.7031 10.9141C82.8203 10.9141 82.9375 10.9258 83.0547 10.9492C83.1953 11.043 83.3125 11.1602 83.4062 11.3008C83.4062 11.793 83.3945 12.2852 83.3711 12.7773C83.3711 13.2461 83.3711 13.7266 83.3711 14.2188C83.3711 15.1094 83.3828 16 83.4062 16.8906C83.4297 17.7812 83.4297 18.6719 83.4062 19.5625C83.4531 19.7734 83.4648 19.8906 83.4414 19.9141C83.418 19.9375 83.4062 19.9727 83.4062 20.0195C83.4062 20.9102 83.4297 21.7891 83.4766 22.6562C83.5234 23.5234 83.5469 24.4023 83.5469 25.293V29.9688C83.5469 30.9766 83.5703 31.9727 83.6172 32.957C83.6875 33.9414 83.7227 34.9258 83.7227 35.9102C83.7227 36.0039 83.6641 36.1328 83.5469 36.2969C83.5 36.4844 83.4297 36.6367 83.3359 36.7539C83.125 36.7773 82.9258 36.7422 82.7383 36.6484C82.6445 36.6484 82.5742 36.6836 82.5273 36.7539C82.5039 36.8008 82.457 36.8477 82.3867 36.8945C82.1992 36.8945 82.0469 36.9414 81.9297 37.0352C81.8125 37.1289 81.6719 37.1758 81.5078 37.1758C81.3672 37.1758 81.2266 37.1523 81.0859 37.1055C80.9688 37.082 80.8281 37.0703 80.6641 37.0703C80.6172 37.0703 80.5469 37.1055 80.4531 37.1758C80.3594 37.2695 80.2891 37.3281 80.2422 37.3516C80.125 37.3516 80.0195 37.3633 79.9258 37.3867C79.832 37.4336 79.7266 37.457 79.6094 37.457C79.4922 37.3633 79.4336 37.2227 79.4336 37.0352C79.457 36.8477 79.3867 36.7305 79.2227 36.6836C79.2227 36.5664 79.2227 36.4375 79.2227 36.2969C79.2461 36.1562 79.2578 36.0156 79.2578 35.875C79.2578 34.9609 79.2344 34.0469 79.1875 33.1328C79.1406 32.1953 79.1055 31.2695 79.082 30.3555C79.0586 29.957 79.0469 29.5703 79.0469 29.1953C79.0703 28.7969 79.082 28.3984 79.082 28C79.082 27.7891 79.082 27.5781 79.082 27.3672C79.082 27.1562 79.0586 26.957 79.0117 26.7695C78.8711 26.7461 78.7422 26.7695 78.625 26.8398C78.5312 26.8867 78.4258 26.9102 78.3086 26.9102C77.8164 27.0742 77.4883 27.2383 77.3242 27.4023C77.1836 27.4023 77.0664 27.4258 76.9727 27.4727C76.8789 27.5195 76.7734 27.5664 76.6562 27.6133C76.4688 27.6602 76.2812 27.707 76.0938 27.7539C75.9297 27.7773 75.7539 27.8242 75.5664 27.8945C75.4492 27.9414 75.332 27.9883 75.2148 28.0352C75.0977 28.082 74.9805 28.1289 74.8633 28.1758C74.6055 28.2695 74.3477 28.3633 74.0898 28.457C73.832 28.5273 73.5742 28.6094 73.3164 28.7031C73.0586 28.75 72.8359 28.8203 72.6484 28.9141C72.4609 29.0078 72.2734 29.1016 72.0859 29.1953C71.9219 30.2969 71.8281 31.3516 71.8047 32.3594C71.8047 33.3438 71.8398 34.3281 71.9102 35.3125C71.8633 35.4531 71.8398 35.6172 71.8398 35.8047C71.8398 35.9688 71.8047 36.1094 71.7344 36.2266C71.4766 36.2969 71.3008 36.3086 71.207 36.2617C71.1367 36.1914 71.0547 36.1328 70.9609 36.0859C70.8672 36.1094 70.7852 36.1562 70.7148 36.2266C70.668 36.2969 70.6211 36.3555 70.5742 36.4023C70.3867 36.4023 70.2344 36.4492 70.1172 36.543C70.0234 36.6133 69.9297 36.6719 69.8359 36.7188C69.7656 36.7422 69.6953 36.7422 69.625 36.7188C69.5547 36.6953 69.4727 36.707 69.3789 36.7539C69.1445 36.7539 69.0273 36.7305 69.0273 36.6836C69.0508 36.6133 69.0273 36.5781 68.957 36.5781C68.8633 36.5781 68.793 36.625 68.7461 36.7188C68.7227 36.7891 68.6641 36.8477 68.5703 36.8945C68.4766 36.9414 68.3711 36.9766 68.2539 37C68.1367 37 68.0195 37.0234 67.9023 37.0703C67.7852 36.9531 67.7266 36.8242 67.7266 36.6836C67.7266 36.543 67.668 36.4141 67.5508 36.2969C67.5039 35.9688 67.4688 35.6523 67.4453 35.3477C67.4453 35.0195 67.4102 34.6914 67.3398 34.3633C67.3867 33.707 67.3984 33.1797 67.375 32.7812C67.375 32.3828 67.375 31.9727 67.375 31.5508C67.375 31.1758 67.3633 30.8008 67.3398 30.4258C67.3164 30.0508 67.293 29.6758 67.2695 29.3008C67.2227 28.6211 67.1758 27.9297 67.1289 27.2266C67.1055 26.5234 67.0938 25.8203 67.0938 25.1172C67.0938 24.5312 67.1172 23.957 67.1641 23.3945C67.2344 22.832 67.2695 22.2578 67.2695 21.6719C67.2695 21.2734 67.2695 20.8867 67.2695 20.5117C67.293 20.1133 67.3047 19.7148 67.3047 19.3164C67.3047 18.9883 67.293 18.6719 67.2695 18.3672C67.2695 18.0391 67.2695 17.7227 67.2695 17.418C67.2695 17.0664 67.293 16.7266 67.3398 16.3984C67.3867 16.0469 67.4102 15.707 67.4102 15.3789C67.4102 14.9805 67.3867 14.5937 67.3398 14.2188C67.293 13.8203 67.2695 13.4219 67.2695 13.0234C67.2695 12.9062 67.2812 12.8008 67.3047 12.707C67.3281 12.5898 67.3398 12.4727 67.3398 12.3555C67.3164 12.0977 67.3281 11.9453 67.375 11.8984C67.4219 11.8281 67.4688 11.7461 67.5156 11.6523C67.6328 11.6289 67.7617 11.5938 67.9023 11.5469C68.043 11.5 68.1719 11.5 68.2891 11.5469C68.4297 11.4062 68.6172 11.3359 68.8516 11.3359C69.1094 11.3359 69.2969 11.2539 69.4141 11.0898C69.5781 11.1133 69.6836 11.125 69.7305 11.125C69.8008 11.1016 69.8594 11.0898 69.9062 11.0898C70.1172 11.1367 70.2227 11.1367 70.2227 11.0898C70.2461 11.0195 70.293 10.9844 70.3633 10.9844C70.4805 10.9844 70.6562 10.9961 70.8906 11.0195C71.1484 11.0195 71.3242 11.0664 71.418 11.1602C71.6523 12.4023 71.7812 13.668 71.8047 14.957C71.8281 16.2461 71.8398 17.5234 71.8398 18.7891C71.8398 19.1172 71.8516 19.457 71.875 19.8086C71.8984 20.1367 71.8867 20.4648 71.8398 20.793C71.8398 20.9336 71.8281 21.0742 71.8047 21.2148C71.7812 21.332 71.7695 21.4609 71.7695 21.6016C71.7695 22 71.7461 22.4219 71.6992 22.8672C71.6523 23.2891 71.6289 23.6992 71.6289 24.0977C71.9102 24.2617 72.1445 24.3203 72.332 24.2734C72.543 24.2031 72.7422 24.1328 72.9297 24.0625C73.1641 23.9922 73.375 23.9219 73.5625 23.8516C73.7734 23.7578 73.9844 23.6758 74.1953 23.6055C74.3828 23.5117 74.582 23.4414 74.793 23.3945C75.0273 23.3242 75.2383 23.2656 75.4258 23.2188C76.0352 23.0078 76.6328 22.75 77.2188 22.4453C77.8047 22.1406 78.4023 21.8945 79.0117 21.707C78.9648 20.418 78.9414 19.1406 78.9414 17.875C78.9414 16.5859 78.9414 15.3086 78.9414 14.043C78.9414 13.6914 78.9414 13.3281 78.9414 12.9531C78.9414 12.5781 78.9648 12.2148 79.0117 11.8633C79.0352 11.7695 79.0586 11.6992 79.082 11.6523C79.1289 11.582 79.1523 11.4883 79.1523 11.3711C79.2227 11.2539 79.3047 11.1719 79.3984 11.125C79.4922 11.0781 79.5625 11.0078 79.6094 10.9141C79.6562 10.9609 79.7031 11.0078 79.75 11.0547C79.8203 11.0781 79.8906 11.1016 79.9609 11.125C80.1484 11.0781 80.2539 11.043 80.2773 11.0195C80.3242 10.9961 80.3711 10.9727 80.418 10.9492C80.5352 10.9023 80.6875 10.8789 80.875 10.8789C81.0625 10.8789 81.2148 10.8789 81.332 10.8789H81.7539L82.1055 10.9844ZM89.207 36.4375C89.1367 36.4844 89.0664 36.5312 88.9961 36.5781C88.9258 36.625 88.8555 36.6719 88.7852 36.7188C88.5273 36.8594 88.293 36.9414 88.082 36.9648C87.8711 36.9648 87.6367 37.082 87.3789 37.3164C87.2852 37.1992 87.2148 37.1406 87.168 37.1406C87.1211 37.1406 87.0391 37.1406 86.9219 37.1406C86.6172 37.1406 86.4414 37.0586 86.3945 36.8945C86.3008 36.918 86.1484 36.9766 85.9375 37.0703C85.75 37.1641 85.6094 37.2344 85.5156 37.2812C85.7266 36.9766 85.8672 36.7422 85.9375 36.5781C86.0078 36.4141 86.043 36.2617 86.043 36.1211C86.0664 35.9805 86.0781 35.8398 86.0781 35.6992C86.1016 35.5352 86.1602 35.3125 86.2539 35.0312C86.3008 34.9375 86.3359 34.8438 86.3594 34.75C86.3828 34.6562 86.418 34.5508 86.4648 34.4336C86.582 34.082 86.6758 33.6836 86.7461 33.2383C86.8398 32.793 86.9805 32.4062 87.168 32.0781C87.168 31.6797 87.25 31.3047 87.4141 30.9531C87.6016 30.6016 87.7539 30.2383 87.8711 29.8633C87.918 29.7227 87.9766 29.582 88.0469 29.4414C88.1406 29.3008 88.2109 29.1602 88.2578 29.0195C88.3516 28.7852 88.4219 28.5625 88.4688 28.3516C88.5391 28.1172 88.6094 27.8945 88.6797 27.6836C88.8672 27.0039 89.0547 26.3359 89.2422 25.6797C89.4297 25 89.6055 24.3203 89.7695 23.6406C89.793 23.5234 89.8164 23.3945 89.8398 23.2539C89.8867 23.1133 89.9336 22.9844 89.9805 22.8672C90.0977 22.5156 90.168 22.1641 90.1914 21.8125C90.2383 21.4375 90.3555 21.0859 90.543 20.7578C90.5195 20.5938 90.5195 20.4414 90.543 20.3008C90.5898 20.1602 90.6367 20.0078 90.6836 19.8438C90.7305 19.6797 90.7773 19.5273 90.8242 19.3867C90.8711 19.2461 90.9062 19.1406 90.9297 19.0703C91.0469 18.7656 91.1289 18.4961 91.1758 18.2617C91.2461 18.0039 91.375 17.7344 91.5625 17.4531C91.5625 17.4531 91.5977 17.3359 91.668 17.1016C91.7383 16.8438 91.8203 16.5625 91.9141 16.2578C92.0078 15.9531 92.0898 15.6719 92.1602 15.4141C92.2305 15.1328 92.2656 14.9688 92.2656 14.9219C92.3125 14.7344 92.3477 14.5586 92.3711 14.3945C92.418 14.2305 92.4648 14.0547 92.5117 13.8672C92.5586 13.75 92.6055 13.6562 92.6523 13.5859C92.6992 13.4922 92.7461 13.3867 92.793 13.2695C92.8633 13.0117 92.9336 12.6953 93.0039 12.3203C93.0742 11.9453 93.168 11.6523 93.2852 11.4414C93.3555 11.2773 93.4844 11.1484 93.6719 11.0547C93.8828 10.9375 94.0586 10.8203 94.1992 10.7031C94.6211 10.75 94.9258 10.7266 95.1133 10.6328C95.3242 10.5391 95.5234 10.4219 95.7109 10.2812C95.8281 10.3047 95.9336 10.3398 96.0273 10.3867C96.1445 10.4102 96.2617 10.4219 96.3789 10.4219C96.8242 10.9141 97.1289 11.418 97.293 11.9336C97.4805 12.4492 97.6562 12.9648 97.8203 13.4805C97.8906 13.7383 97.9609 13.9961 98.0312 14.2539C98.1016 14.4883 98.1836 14.7227 98.2773 14.957C98.3008 15.0273 98.3359 15.1094 98.3828 15.2031C98.4297 15.2734 98.4766 15.3555 98.5234 15.4492C98.6406 15.6367 98.7344 15.8359 98.8047 16.0469C98.8984 16.2578 98.9805 16.4688 99.0508 16.6797C99.1914 16.8438 99.2969 17.043 99.3672 17.2773C99.4375 17.4883 99.4961 17.7109 99.543 17.9453C99.6133 18.1562 99.6836 18.3672 99.7539 18.5781C99.8242 18.7656 99.9297 18.9297 100.07 19.0703C100.117 19.3281 100.199 19.5859 100.316 19.8438C100.434 20.0781 100.516 20.3359 100.562 20.6172C100.703 20.8047 100.867 21.168 101.055 21.707C101.242 22.2227 101.43 22.7852 101.617 23.3945C101.805 24.0039 101.98 24.5898 102.145 25.1523C102.309 25.7148 102.426 26.1133 102.496 26.3477C102.543 26.5352 102.637 26.7812 102.777 27.0859C102.918 27.3672 103.047 27.625 103.164 27.8594C103.258 28.1172 103.352 28.3867 103.445 28.668C103.562 28.9492 103.656 29.2188 103.727 29.4766C103.773 29.7344 103.82 29.9805 103.867 30.2148C103.938 30.4492 104.008 30.6953 104.078 30.9531C104.125 31.1172 104.195 31.2695 104.289 31.4102C104.383 31.5273 104.453 31.6797 104.5 31.8672C104.594 32.0547 104.652 32.2305 104.676 32.3945C104.723 32.5586 104.805 32.7344 104.922 32.9219C104.898 33.1797 104.91 33.3438 104.957 33.4141C105.004 33.4844 105.051 33.5664 105.098 33.6602C105.191 34.1523 105.297 34.5508 105.414 34.8555C105.531 35.1367 105.59 35.4414 105.59 35.7695C105.59 36.0508 105.531 36.2266 105.414 36.2969C105.32 36.3672 105.191 36.4844 105.027 36.6484C104.84 36.8125 104.676 36.9414 104.535 37.0352C104.418 37.1289 104.23 37.1758 103.973 37.1758C103.691 37.1523 103.516 37.1875 103.445 37.2812C103.398 37.3984 103.363 37.4805 103.34 37.5273C103.059 37.5039 102.871 37.4922 102.777 37.4922C102.707 37.5156 102.625 37.5273 102.531 37.5273C102.461 37.5273 102.379 37.5391 102.285 37.5625C102.215 37.6094 102.133 37.6914 102.039 37.8086C101.875 37.6211 101.711 37.4453 101.547 37.2812C101.406 37.1406 101.277 36.9766 101.16 36.7891C101.16 36.3906 101.102 35.9219 100.984 35.3828C100.891 34.8438 100.785 34.4219 100.668 34.1172C100.434 33.5078 100.211 32.9102 100 32.3242C99.8125 31.7383 99.625 31.1406 99.4375 30.5312C99.3672 30.2734 99.2852 30.0391 99.1914 29.8281C99.1211 29.6172 99.0391 29.3945 98.9453 29.1602C98.9922 29.3477 99.0039 29.5469 98.9805 29.7578C98.9805 29.9453 98.9219 30.1328 98.8047 30.3203C98.7578 30.3672 98.6875 30.4258 98.5938 30.4961C98.5 30.5664 98.4531 30.625 98.4531 30.6719C98.1719 30.9062 97.9258 31.1289 97.7148 31.3398C97.7383 31.7617 97.6797 32.0547 97.5391 32.2188C97.3984 32.3828 97.2461 32.5352 97.082 32.6758C96.6836 32.6992 96.4375 32.6758 96.3438 32.6055C96.25 32.5352 96.1211 32.4883 95.957 32.4648C95.8633 32.4414 95.7695 32.4414 95.6758 32.4648C95.582 32.4648 95.4883 32.4648 95.3945 32.4648C95.207 32.4648 95.0312 32.418 94.8672 32.3242C94.7969 32.2773 94.7383 32.2305 94.6914 32.1836C94.668 32.1367 94.6328 32.0898 94.5859 32.043C94.3984 31.8555 94.1758 31.7031 93.918 31.5859C93.6836 31.4453 93.4492 31.3281 93.2148 31.2344C93.0273 31.0703 92.8281 30.9062 92.6172 30.7422C92.4297 30.5547 92.2305 30.4023 92.0195 30.2852C91.832 30.7305 91.6797 31.1289 91.5625 31.4805C91.4688 31.8086 91.3516 32.1367 91.2109 32.4648C90.9531 33.2617 90.7422 33.9648 90.5781 34.5742C90.4141 35.1602 90.2266 35.7578 90.0156 36.3672C89.9219 36.3906 89.8281 36.4258 89.7344 36.4727C89.6641 36.5195 89.5703 36.543 89.4531 36.543L89.207 36.4375ZM92.6523 28.9492C92.8398 28.6211 93.0039 28.4453 93.1445 28.4219C93.3086 28.375 93.4492 28.2812 93.5664 28.1406C93.6133 28.0938 93.6602 28.0352 93.707 27.9648C93.7773 27.8945 93.8477 27.8242 93.918 27.7539C93.9883 27.707 94.0703 27.6602 94.1641 27.6133C94.2578 27.5664 94.3398 27.5078 94.4102 27.4375C94.5977 27.2734 94.75 27.1328 94.8672 27.0156C95.0078 26.8984 95.207 26.8398 95.4648 26.8398C95.8633 26.8398 96.1914 26.9453 96.4492 27.1562C96.707 27.3438 97.0234 27.4727 97.3984 27.543C97.4453 27.6836 97.5977 27.7891 97.8555 27.8594C98.1133 27.9062 98.3125 27.9766 98.4531 28.0703C98.2188 27.4844 98.0312 26.8984 97.8906 26.3125C97.7734 25.7031 97.6211 25.1055 97.4336 24.5195C97.293 24.0039 97.1289 23.5 96.9414 23.0078C96.7539 22.4922 96.5664 22 96.3789 21.5312C96.2148 21.0625 96.0742 20.6055 95.957 20.1602C95.8398 19.7148 95.6875 19.2812 95.5 18.8594C95.3125 19.2812 95.125 19.7969 94.9375 20.4062C94.75 21.0156 94.6094 21.5547 94.5156 22.0234C94.5156 22.2344 94.5039 22.3984 94.4805 22.5156C94.4336 22.6797 94.3867 22.832 94.3398 22.9727C94.293 23.0898 94.2461 23.2188 94.1992 23.3594C93.8945 24.2734 93.6133 25.1992 93.3555 26.1367C93.1211 27.0742 92.8398 28.0117 92.5117 28.9492H92.6523Z" fill="white"/>
</svg>
